<svg width="150" height="150" viewBox="0 0 150 150" fill="none" xmlns="http://www.w3.org/2000/svg">
<g id="Logo">
<g id="BG" filter="url(#filter0_b_225_796)">
<rect x="6.10352e-05" width="150" height="150" rx="75" fill="#087C7C"/>
</g>
<path id="Vector" d="M114.337 71.4633L77.011 37.7498C75.901 36.7501 74.0961 36.7501 72.986 37.7498L61.7721 47.8806V44.4696C61.7721 43.346 60.8619 42.4299 59.7458 42.4299H56.0314C54.9152 42.4299 54.005 43.346 54.005 44.4696V54.8975L35.6636 71.4633C34.5567 72.4631 34.8672 73.2834 36.3524 73.2834H39.8761C41.3613 73.2834 42.5789 74.506 42.5789 76.0041V110.47C42.5789 111.965 43.7935 113.19 45.2786 113.19H104.721C106.207 113.19 107.421 111.965 107.421 110.47V76.0041C107.421 74.506 108.639 73.2834 110.124 73.2834H113.648C115.133 73.2834 115.443 72.4662 114.337 71.4633ZM90.3896 95.9747C88.6585 98.5933 86.337 100.676 83.6588 102.085C83.3298 102.264 82.9947 102.425 82.6533 102.577C80.3441 103.623 77.8074 104.183 75.1876 104.183C64.9669 104.183 56.9569 96.3678 56.9569 86.3825C56.9569 86.1875 56.96 85.9894 56.9692 85.7944C57.003 84.6739 57.1383 83.5844 57.3658 82.5258C58.236 78.437 60.4622 74.8526 63.5494 72.2681C66.7072 69.6217 70.7691 68.0276 75.1907 68.0276C77.091 68.0276 78.942 68.3186 80.6885 68.8726C85.2946 70.3274 89.1966 73.5929 91.4658 78.0965C91.8225 78.8115 91.8779 79.6565 91.6134 80.4148C91.349 81.1701 90.7832 81.7984 90.0576 82.1234L89.3288 82.4577L89.172 82.5258L86.1956 83.8815L82.0076 85.7944L72.4049 90.1742L70.3202 91.1275C69.9358 91.3008 69.533 91.3937 69.1148 91.3937H69.1025C67.9525 91.3906 66.9102 90.7065 66.4366 89.6542C66.1138 88.9392 66.0861 88.1344 66.3628 87.3946C66.4705 87.1006 66.6273 86.8313 66.8179 86.5899C67.0793 86.2556 67.4114 85.9832 67.8019 85.7944C67.8357 85.7727 67.8664 85.7572 67.9003 85.7448L69.8436 84.8565L74.957 82.5258L83.911 78.44L84.4952 78.1739C82.1583 75.4686 78.8159 73.9365 75.1907 73.9365C74.0838 73.9365 73.0106 74.0819 71.9929 74.3574C67.9556 75.45 64.727 78.5484 63.4325 82.5227C63.0974 83.5596 62.8913 84.6584 62.8391 85.7913C62.8268 85.9863 62.8237 86.1844 62.8237 86.3794C62.8237 86.5744 62.8268 86.7725 62.8391 86.9675C63.042 91.143 65.385 94.6932 68.8658 96.6494C70.7045 97.6833 72.863 98.2713 75.1876 98.2713C77.2447 98.2713 79.228 97.7606 80.9837 96.8228C82.638 95.9344 84.0954 94.6747 85.2208 93.0992C85.3162 92.9692 85.4053 92.833 85.4945 92.6999C86.0387 91.8735 86.955 91.3782 87.9451 91.3782C88.5232 91.3782 89.0828 91.5485 89.5687 91.8704C89.6455 91.9199 89.7193 91.9756 89.79 92.0344C90.156 92.3285 90.4327 92.6999 90.6172 93.1116C91.0169 94.0092 90.9708 95.0894 90.3896 95.9716V95.9747Z" fill="white"/>
</g>
<defs>
<filter id="filter0_b_225_796" x="-300" y="-300" width="750" height="750" filterUnits="userSpaceOnUse" color-interpolation-filters="sRGB">
<feFlood flood-opacity="0" result="BackgroundImageFix"/>
<feGaussianBlur in="BackgroundImageFix" stdDeviation="150"/>
<feComposite in2="SourceAlpha" operator="in" result="effect1_backgroundBlur_225_796"/>
<feBlend mode="normal" in="SourceGraphic" in2="effect1_backgroundBlur_225_796" result="shape"/>
</filter>
</defs>
</svg>
