<svg width="150" height="150" viewBox="0 0 150 150" fill="none" xmlns="http://www.w3.org/2000/svg">
<g id="Logo">
<g id="BG" filter="url(#filter0_b_225_801)">
<rect x="6.10352e-05" width="150" height="150" rx="75" fill="#1D49C0"/>
</g>
<path id="Path 8" d="M93.553 80.2358C94.495 76.8481 94.495 73.2681 93.553 69.8804H101.685C101.991 69.8809 102.294 69.8109 102.57 69.6758C102.845 69.5407 103.086 69.3442 103.273 69.1015C103.46 68.8587 103.589 68.5762 103.65 68.2758C103.71 67.9753 103.7 67.6651 103.622 67.3689C102.185 62.0368 99.2838 57.2124 95.2449 53.4411C91.206 49.6699 86.1909 47.1023 80.7669 46.0288C75.3429 44.9553 69.7262 45.4186 64.5521 47.3665C59.378 49.3143 54.853 52.6689 51.4887 57.0509C48.1243 61.4329 46.0549 66.6674 45.5146 72.1626C44.9742 77.6577 45.9843 83.1943 48.4307 88.146C50.8772 93.0978 54.6623 97.2673 59.3581 100.183C64.0539 103.099 69.473 104.644 75.0026 104.645H90.8769C91.7607 104.645 92.6084 104.995 93.2333 105.619C93.8582 106.243 94.2093 107.09 94.2093 107.972V111.672C94.2093 112.555 93.8582 113.401 93.2333 114.025C92.6084 114.649 91.7607 115 90.8769 115H74.7306C69.4763 114.997 64.2748 113.953 59.4267 111.93C54.5787 109.907 50.1803 106.945 46.4859 103.214C42.7916 99.4831 39.8746 95.058 37.9035 90.1944C35.9323 85.3308 34.9463 80.1253 35.0023 74.8788C35.0023 74.861 35.0023 74.8424 35.0023 74.8245C35.0333 64.2315 39.2772 54.0846 46.8004 46.6161C50.5255 42.918 54.9435 39.9889 59.8023 37.9958C64.661 36.0028 69.8653 34.9848 75.1181 35.0002C80.3708 35.0155 85.569 36.0638 90.416 38.0852C95.263 40.1066 99.6638 43.0615 103.367 46.7812C107.071 50.501 110.004 54.9127 112 59.7644C113.996 64.6162 115.015 69.813 115 75.0581C115 75.7524 114.982 76.4406 114.948 77.1225C114.902 77.9647 114.534 78.7571 113.92 79.3364C113.306 79.9157 112.493 80.2376 111.648 80.2358H93.553Z" fill="white"/>
<path id="Path 10" d="M94.2595 75.0581C94.2597 79.0942 92.9881 83.0282 90.6249 86.3026C88.2617 89.577 84.9267 92.026 81.0922 93.3026C77.2578 94.5793 73.1183 94.6188 69.26 93.4158C65.4018 92.2127 62.0204 89.8279 59.5949 86.5993C59.4072 86.3539 59.2918 86.0611 59.2618 85.7537C59.2318 85.4464 59.2883 85.1368 59.425 84.8598C59.5617 84.5829 59.7731 84.3495 60.0354 84.186C60.2977 84.0226 60.6006 83.9355 60.9098 83.9346H71.4239C72.7652 83.9343 74.0515 83.4021 74.9999 82.4549C75.9481 81.5078 76.4809 80.2234 76.481 78.8841V71.2329C76.4809 69.8936 75.9481 68.6092 74.9999 67.662C74.0514 66.7153 72.7651 66.1833 71.4239 66.1831H60.8502C60.5495 66.1837 60.2546 66.1011 59.9981 65.9444C59.7416 65.7878 59.5336 65.5632 59.3971 65.2956C59.2607 65.0281 59.2012 64.728 59.2252 64.4288C59.2491 64.1295 59.3557 63.8427 59.533 63.6002C61.9446 60.3484 65.3222 57.9393 69.1848 56.716C73.0474 55.4926 77.1981 55.5174 81.0458 56.7867C84.8935 58.0561 88.242 60.5053 90.6145 63.7857C92.987 67.066 94.2626 71.0102 94.2595 75.0566V75.0581Z" fill="white"/>
<path id="Rectangle 1" d="M108.551 104.901C110.262 104.901 111.902 105.58 113.111 106.787C114.321 107.995 115 109.633 115 111.341V112.614C115 112.928 114.938 113.238 114.818 113.528C114.697 113.818 114.521 114.081 114.299 114.302C114.076 114.524 113.813 114.7 113.522 114.819C113.232 114.939 112.921 115 112.607 115H104.493C103.859 115 103.251 114.749 102.803 114.301C102.355 113.854 102.103 113.247 102.103 112.614V111.341C102.103 109.633 102.782 107.995 103.991 106.787C105.201 105.58 106.841 104.901 108.551 104.901Z" fill="white"/>
<path id="Rectangle 2" d="M112.824 97.4234C112.824 95.0671 110.911 93.157 108.551 93.157C106.192 93.157 104.279 95.0671 104.279 97.4234C104.279 99.7796 106.192 101.69 108.551 101.69C110.911 101.69 112.824 99.7796 112.824 97.4234Z" fill="white"/>
</g>
<defs>
<filter id="filter0_b_225_801" x="-300" y="-300" width="750" height="750" filterUnits="userSpaceOnUse" color-interpolation-filters="sRGB">
<feFlood flood-opacity="0" result="BackgroundImageFix"/>
<feGaussianBlur in="BackgroundImageFix" stdDeviation="150"/>
<feComposite in2="SourceAlpha" operator="in" result="effect1_backgroundBlur_225_801"/>
<feBlend mode="normal" in="SourceGraphic" in2="effect1_backgroundBlur_225_801" result="shape"/>
</filter>
</defs>
</svg>
