<svg width="150" height="150" viewBox="0 0 150 150" fill="none" xmlns="http://www.w3.org/2000/svg">
<g id="Logo">
<g id="BG" filter="url(#filter0_b_225_884)">
<rect width="150" height="150" rx="75" fill="url(#paint0_linear_225_884)"/>
</g>
<path id="Vector" d="M106.011 59.7477C104.054 59.3381 102.098 59.5557 100.131 59.5276C99.2911 59.5154 98.9584 59.2683 98.9083 58.3854C98.8281 57.2187 98.6647 56.0592 98.4191 54.9159C95.3862 39.629 77.4517 31.2616 63.8268 38.8317C56.1406 43.1034 51.8529 49.6853 51.0983 58.4844C51.025 59.3307 50.6874 59.5472 49.928 59.5313C48.5901 59.5007 47.2497 59.4958 45.9118 59.5313C39.5757 59.7172 34.3452 65.5372 35.0667 71.6776C35.4165 74.6616 35.9509 77.6248 36.3997 80.6051C37.4454 87.5429 38.5411 94.4721 39.5109 101.421C40.0074 104.978 41.069 108.164 44.0358 110.456C46.3741 112.261 49.067 112.83 51.9287 112.835C59.6268 112.846 67.3261 112.846 75.0266 112.835C82.769 112.835 90.5091 112.864 98.2503 112.826C105.006 112.794 109.234 109.289 110.295 102.65C111.885 92.6707 113.31 82.6646 114.859 72.6768C115.798 66.6611 111.949 60.9927 106.011 59.7477ZM74.9483 59.5105C68.7602 59.5105 62.5708 59.4921 56.3839 59.5288C55.4056 59.5362 55.1133 59.3075 55.1769 58.2668C55.693 49.5912 62.983 41.62 71.6475 40.3359C82.7764 38.6861 92.4548 45.4931 94.6512 56.5228C95.2468 59.5105 95.2468 59.5105 92.2603 59.5105H74.9483Z" fill="white"/>
<path id="Vector_2" d="M75.249 83.6174H85.8312L85.5169 82.721C84.9345 81.0792 83.9724 79.5983 82.709 78.3991C80.6791 76.466 77.9824 75.3894 75.1793 75.393C74.9788 75.393 74.7745 75.3931 74.5678 75.4114C69.0646 75.6988 64.5238 80.2408 64.2364 85.7514C64.1556 87.2374 64.3786 88.7242 64.8917 90.121C65.4048 91.5179 66.1973 92.7955 67.2207 93.8758C68.2441 94.9562 69.4771 95.8165 70.8442 96.4044C72.2113 96.9922 73.6839 97.2952 75.172 97.2948H88.5413C89.3164 97.2948 90.0599 97.6028 90.608 98.1509C91.1562 98.699 91.4641 99.4425 91.4641 100.218C91.4641 100.886 91.1989 101.526 90.7267 101.999C90.2546 102.472 89.6141 102.738 88.946 102.738H75.1805C72.9535 102.739 70.7498 102.285 68.7038 101.406C66.6578 100.526 64.8124 99.2391 63.2803 97.6229C61.7482 96.0066 60.5614 94.0952 59.7925 92.0051C59.0235 89.9151 58.6884 87.6903 58.8077 85.4665C59.2394 77.2091 66.0451 70.4095 74.2988 69.9742C74.596 69.9583 74.8931 69.9497 75.1854 69.9497C79.2032 69.9516 83.0805 71.4285 86.0813 74.1002C89.0821 76.7719 90.9975 80.4523 91.4641 84.4429V87.0942C91.3116 87.6143 91.0081 88.0774 90.5921 88.4248C90.0749 88.8472 89.4255 89.074 88.7577 89.0656H75.183C74.7978 89.0656 74.417 88.9839 74.0657 88.8259C73.7143 88.668 73.4005 88.4374 73.1447 88.1493C72.889 87.8612 72.6973 87.5222 72.5821 87.1547C72.4669 86.7871 72.431 86.3993 72.4766 86.0168C72.5664 85.3475 72.8978 84.7341 73.4085 84.2921C73.9191 83.8502 74.5737 83.6102 75.249 83.6174Z" fill="#51B176"/>
<path id="Vector_3" d="M53.0906 65.2608C54.2408 65.2608 55.1733 64.3284 55.1733 63.1781C55.1733 62.0279 54.2408 61.0955 53.0906 61.0955C51.9404 61.0955 51.0079 62.0279 51.0079 63.1781C51.0079 64.3284 51.9404 65.2608 53.0906 65.2608Z" fill="#51B176"/>
<path id="Vector_4" d="M53.0905 64.176C53.6416 64.176 54.0884 63.7292 54.0884 63.1781C54.0884 62.627 53.6416 62.1802 53.0905 62.1802C52.5393 62.1802 52.0925 62.627 52.0925 63.1781C52.0925 63.7292 52.5393 64.176 53.0905 64.176Z" fill="white"/>
<path id="Vector_5" d="M97.0496 65.7805C98.1998 65.7805 99.1323 64.848 99.1323 63.6978C99.1323 62.5476 98.1998 61.6151 97.0496 61.6151C95.8994 61.6151 94.9669 62.5476 94.9669 63.6978C94.9669 64.848 95.8994 65.7805 97.0496 65.7805Z" fill="#51B176"/>
<path id="Vector_6" d="M97.0494 64.6958C97.6006 64.6958 98.0474 64.249 98.0474 63.6979C98.0474 63.1467 97.6006 62.7 97.0494 62.7C96.4983 62.7 96.0515 63.1467 96.0515 63.6979C96.0515 64.249 96.4983 64.6958 97.0494 64.6958Z" fill="white"/>
</g>
<defs>
<filter id="filter0_b_225_884" x="-300" y="-300" width="750" height="750" filterUnits="userSpaceOnUse" color-interpolation-filters="sRGB">
<feFlood flood-opacity="0" result="BackgroundImageFix"/>
<feGaussianBlur in="BackgroundImageFix" stdDeviation="150"/>
<feComposite in2="SourceAlpha" operator="in" result="effect1_backgroundBlur_225_884"/>
<feBlend mode="normal" in="SourceGraphic" in2="effect1_backgroundBlur_225_884" result="shape"/>
</filter>
<linearGradient id="paint0_linear_225_884" x1="34" y1="141" x2="126" y2="-8.49999" gradientUnits="userSpaceOnUse">
<stop offset="0.432057" stop-color="#26B176"/>
<stop offset="0.926261" stop-color="#78C797"/>
</linearGradient>
</defs>
</svg>
