<svg width="150" height="150" viewBox="0 0 150 150" fill="none" xmlns="http://www.w3.org/2000/svg">
<g id="Logo">
<g id="BG" filter="url(#filter0_b_225_812)">
<rect width="150" height="150" rx="75" fill="url(#paint0_linear_225_812)"/>
</g>
<path id="Path 272" d="M50.1022 89.4135C50.6035 89.034 57.7485 81.9833 59.6827 79.9271C59.7739 79.8323 59.8461 79.7146 59.9525 79.5822C59.827 79.4304 59.7169 79.2787 59.6028 79.1496C57.6943 77.1373 56.4685 74.5765 56.0989 71.8299C55.7818 69.854 55.9007 67.8329 56.4473 65.9077C56.9939 63.9825 57.955 62.1998 59.2634 60.6841C60.5718 59.1684 62.196 57.9562 64.0224 57.1325C65.8488 56.3087 67.8333 55.8931 69.8373 55.9148C72.1182 55.893 74.3669 56.4534 76.37 57.5428C78.7818 58.815 80.7557 60.7806 82.0363 63.1852C82.8282 64.6363 83.3436 66.2215 83.5565 67.8603C83.8134 69.6449 83.7139 71.4626 83.2639 73.2086C82.8138 74.9546 82.022 76.5944 80.9342 78.0335C80.6171 78.4546 80.2691 78.8516 79.893 79.2211C78.3424 80.7881 76.7804 82.3363 75.2262 83.8958C75.0479 84.0738 74.8808 84.2525 74.6828 84.4575C74.7471 84.5764 74.8181 84.6915 74.8955 84.8023C75.0323 84.9617 75.1844 85.0983 75.3288 85.2425L88.2764 98.1711C88.4984 98.3504 88.6852 98.5691 88.8275 98.8162C88.7519 98.8991 88.6692 98.9752 88.5804 99.0438C84.9285 101.395 80.8624 103.032 76.5984 103.867C75.1124 104.15 73.6113 104.348 72.1026 104.459C71.0521 104.542 69.9978 104.568 68.9445 104.534C67.9602 104.5 66.9839 104.39 65.9993 104.314C64.8117 104.204 63.6325 104.018 62.4688 103.756C55.7509 102.313 49.6112 98.916 44.8236 93.9941C40.0361 89.0721 36.8148 82.8452 35.5658 76.0981C35.372 75.0621 35.2428 74.0225 35.1402 72.9713C34.9799 71.1225 34.957 69.2642 35.0718 67.412C35.1423 66.2248 35.2819 65.0427 35.4899 63.8716C35.7942 62.0184 36.2596 60.1952 36.8808 58.4226C39.7462 50.1481 45.6357 43.2593 53.3705 39.1351C55.0673 38.2205 56.8382 37.4501 58.6643 36.8319C60.5375 36.2122 62.4579 35.7451 64.4066 35.4353C66.8774 35.0415 69.3835 34.9144 71.8816 35.0561C73.6897 35.1569 75.486 35.4108 77.2511 35.8151C79.6028 36.3408 81.895 37.1035 84.0923 38.0915C86.4401 39.138 88.6611 40.4479 90.7124 41.9957C95.4286 45.5408 99.1722 50.2173 101.596 55.5917C102.808 58.2661 103.661 61.0882 104.135 63.9852C104.396 65.4488 104.541 66.9306 104.568 68.417C104.568 68.7966 104.659 69.1761 104.637 69.5782C104.568 71.1985 104.526 72.8226 104.306 74.439C103.983 76.8225 103.417 79.167 102.618 81.4361C101.791 83.7931 100.701 86.0498 99.3693 88.1638C99.259 88.3347 99.1412 88.5087 99.0196 88.6724C99.0005 88.7065 98.9436 88.7218 98.9094 88.7408H98.841C98.8183 88.739 98.7969 88.7297 98.7802 88.7143C98.6434 88.5891 98.5066 88.4751 98.3736 88.3347L94.0563 83.9976C94.0251 83.9434 93.9997 83.8862 93.9804 83.8267C94.0716 83.6559 94.1666 83.4473 94.2692 83.2499C95.7221 80.6499 96.7389 77.8299 97.2791 74.9019C97.4976 73.5926 97.6473 72.2729 97.7276 70.948C97.7884 69.7588 97.763 68.5667 97.6516 67.3812C97.5709 66.2406 97.4034 65.1078 97.1503 63.9926C96.6146 61.5055 95.7467 59.1014 94.5698 56.845C92.6393 53.1847 89.9233 49.995 86.6157 47.5037C83.3081 45.0125 79.4904 43.2811 75.4352 42.4331C72.9611 41.9276 70.4298 41.7592 67.9105 41.9326C64.7903 42.1273 61.7275 42.8604 58.8581 44.0994C56.4941 45.1139 54.2796 46.4453 52.2758 48.057C49.5451 50.2749 47.2469 52.9761 45.4961 56.0253C44.4368 57.8751 43.5988 59.8427 42.9993 61.8878C42.6814 62.9402 42.4351 64.0128 42.262 65.0984C42.0391 66.3148 41.9121 67.5467 41.882 68.7829C41.882 69.1055 41.882 69.4205 41.882 69.7467C41.8669 71.0527 41.9521 72.358 42.1367 73.651C42.3147 74.9203 42.5762 76.1766 42.9195 77.4117C43.4639 79.3773 44.2289 81.2752 45.1998 83.0695C46.369 85.2532 47.8374 87.2636 49.5626 89.0426C49.7374 89.1516 49.8665 89.3565 50.1022 89.4135Z" fill="white"/>
<path id="Path 273" d="M94.2577 104.546C94.2806 102.151 95.1343 99.8372 96.6737 97.9999C98.213 96.1625 100.343 94.9149 102.7 94.4694C105.057 94.0239 107.496 94.4081 109.601 95.5566C111.707 96.7052 113.348 98.5469 114.246 100.768C115.144 102.99 115.243 105.453 114.526 107.739C113.809 110.025 112.321 111.992 110.314 113.305C108.308 114.618 105.908 115.196 103.522 114.941C101.137 114.685 98.9139 113.612 97.2321 111.904C95.3062 109.94 94.2369 107.294 94.2577 104.546Z" fill="white"/>
</g>
<defs>
<filter id="filter0_b_225_812" x="-300" y="-300" width="750" height="750" filterUnits="userSpaceOnUse" color-interpolation-filters="sRGB">
<feFlood flood-opacity="0" result="BackgroundImageFix"/>
<feGaussianBlur in="BackgroundImageFix" stdDeviation="150"/>
<feComposite in2="SourceAlpha" operator="in" result="effect1_backgroundBlur_225_812"/>
<feBlend mode="normal" in="SourceGraphic" in2="effect1_backgroundBlur_225_812" result="shape"/>
</filter>
<linearGradient id="paint0_linear_225_812" x1="-20.5" y1="44.5" x2="174" y2="128.5" gradientUnits="userSpaceOnUse">
<stop stop-color="#E75185"/>
<stop offset="0.647278" stop-color="#73265C"/>
</linearGradient>
</defs>
</svg>
