<svg width="150" height="150" viewBox="0 0 150 150" fill="none" xmlns="http://www.w3.org/2000/svg">
<g id="Logo">
<g id="BG" filter="url(#filter0_b_225_858)">
<rect x="6.10352e-05" width="150" height="150" rx="75" fill="#2C272E"/>
</g>
<path id="Ellipse 1" d="M84.384 115C106.475 115 124.384 97.0914 124.384 75C124.384 52.9086 106.475 35 84.384 35C62.2926 35 44.384 52.9086 44.384 75C44.384 97.0914 62.2926 115 84.384 115Z" fill="#DD4A48"/>
<path id="Path 231" d="M114.546 60.254C110.764 52.3794 104.052 46.297 95.8441 43.3065C87.6365 40.316 78.5846 40.655 70.6236 44.2511C70.5842 44.1683 70.541 44.0892 70.4937 44.0143C70.0113 43.2123 69.2321 42.6335 68.3247 42.4039C67.4173 42.1743 66.4553 42.3128 65.6494 42.7888C64.8473 43.2713 64.2691 44.051 64.0395 44.9584C63.8098 45.8658 63.9474 46.8273 64.4234 47.6331C64.451 47.6765 64.4746 47.7198 64.5062 47.7592C58.4938 52.0759 54.1344 58.3149 52.149 65.4452C50.3037 71.5528 50.2874 78.0672 52.1019 84.184C52.1354 84.3 52.1957 84.4065 52.277 84.4958C52.3583 84.585 52.4582 84.6546 52.5705 84.6988C52.6829 84.743 52.8043 84.7608 52.9247 84.7508C53.045 84.7408 53.1618 84.7032 53.2653 84.6411C55.2007 83.4586 57.0178 82.3434 58.8901 81.3225C59.3039 81.1619 59.6372 80.8447 59.8187 80.4396C60.0002 80.0345 60.0147 79.574 59.8591 79.1583C58.9611 74.0999 59.6568 68.8875 61.8492 64.2413C64.0416 59.5952 67.6225 55.745 72.0979 53.2223C76.5488 50.7 81.6683 49.6092 86.7608 50.0986C91.8533 50.588 96.6714 52.6338 100.56 55.9577C101.278 56.5726 101.936 57.2547 102.697 58.0233C102.781 58.1084 102.844 58.2114 102.883 58.3245C102.921 58.4377 102.932 58.5578 102.917 58.6762C102.902 58.7947 102.86 58.9084 102.795 59.0082C102.73 59.1081 102.642 59.1919 102.54 59.2532C101.176 60.0415 99.9346 60.7783 98.7167 61.543C91.4587 66.0996 84.206 70.664 76.9586 75.2363C72.7042 77.9193 68.4509 80.6034 64.1992 83.289L62.1379 84.5901C61.5151 84.9842 60.9984 85.339 60.6357 85.536H60.604C57.5728 87.1797 57.2896 87.1756 55.2438 86.9194C52.7893 86.1152 50.1313 86.1921 47.7272 87.1364C41.5711 90.7276 35.7439 94.8544 30.313 99.4695C23.4191 104.708 24.8375 103.932 25.8623 103.317C26.8871 102.702 44.9638 91.6457 46.0556 91.2397C47.1475 90.8337 47.9512 92.6032 47.2614 93.1826C46.5716 93.7621 45.9887 94.1999 42.2323 96.8842C38.4759 99.5685 26.8795 106.884 27.0844 107.097C27.2894 107.31 47.5807 95.5478 48.5346 95.0038C48.6395 94.9254 48.7622 94.8736 48.8916 94.8527C49.0209 94.8319 49.1531 94.8426 49.2775 94.884C49.4018 94.9255 49.5147 94.9961 49.6056 95.0904C49.6966 95.1848 49.7631 95.3001 49.8 95.4258V95.4532C49.8931 95.5414 49.9638 95.6509 50.005 95.7722C50.0462 95.8936 50.0569 96.0229 50.0367 96.1495C50.0165 96.276 49.9654 96.3963 49.8885 96.4988C49.8116 96.6013 49.7109 96.6831 49.595 96.7379C48.6648 97.341 28.8268 109.817 28.9254 110.085C29.0239 110.353 40.892 103.482 45.0307 101.413C49.1695 99.3435 49.8197 99.0477 50.6632 98.689C51.5067 98.3303 52.7291 99.8716 51.8738 100.636C51.0185 101.401 32.7839 112.217 31.7709 112.856C30.7579 113.494 29.4056 114.369 37.2889 110.707C43.9205 108.054 50.3049 104.82 56.3669 101.042C57.3016 100.381 58.0891 99.5334 58.6793 98.5524C59.2696 97.5713 59.6502 96.4781 59.7966 95.3426C60.443 92.879 59.9889 92.4575 63.5246 90.3448L63.6949 90.2423L63.9076 90.1201L64.0019 90.0647C65.0741 89.4419 66.1493 88.8245 67.2267 88.2123L69.3669 86.9944C76.1991 83.1027 83.024 79.2186 89.8431 75.3427L100.557 69.2334C102.65 68.0509 104.755 66.8684 106.828 65.6584C109.284 64.2236 111.719 62.7532 114.234 61.2514C114.399 61.1518 114.522 60.9953 114.58 60.8116C114.637 60.6279 114.625 60.4296 114.546 60.254ZM65.7601 46.9037L65.7245 46.8522C65.4526 46.3934 65.3734 45.8459 65.5041 45.3289C65.6348 44.8119 65.9649 44.3677 66.4222 44.0932C66.8814 43.8217 67.4294 43.7433 67.9465 43.8748C68.4635 44.0063 68.9074 44.3369 69.1811 44.7948L69.2446 44.9093C68.0467 45.5083 66.8832 46.1741 65.7601 46.9037Z" fill="white"/>
<path id="Path 232" d="M62.133 84.5902C61.5102 84.9844 60.9944 85.3391 60.6318 85.5362H60.6L62.133 84.5902Z" fill="white"/>
<path id="Path 233" d="M116.665 72.1622C116.78 72.0953 116.909 72.0585 117.042 72.0549C117.174 72.0513 117.306 72.0812 117.424 72.1417C117.542 72.2022 117.642 72.2914 117.716 72.4011C117.791 72.5107 117.836 72.6375 117.848 72.7694C118.335 79.3557 116.848 85.9375 113.577 91.6749C110.306 97.4122 105.4 102.045 99.4841 104.981C93.1835 108.166 86.0358 109.273 79.0666 108.145C72.0974 107.017 65.6644 103.711 60.6901 98.7015C60.6095 98.6184 60.5479 98.5185 60.5102 98.409C60.4725 98.2994 60.4593 98.183 60.4717 98.0678C60.4841 97.9527 60.5222 97.8417 60.5824 97.7428C60.6425 97.6438 60.7235 97.5592 60.8201 97.4952C62.7909 96.3127 64.7614 95.1698 66.7046 93.9479C66.9522 93.74 67.27 93.6342 67.5929 93.6517C67.9157 93.6693 68.22 93.8089 68.4436 94.0424C72.0085 97.1416 76.4063 99.1241 81.0894 99.743C85.7725 100.362 90.5336 99.5897 94.7813 97.5229C98.729 95.8213 102.144 93.0856 104.666 89.6042C107.188 86.1228 108.723 82.025 109.109 77.7436C109.128 77.3615 109.247 76.9911 109.455 76.6699C109.662 76.3487 109.951 76.0882 110.292 75.9147C112.424 74.7125 114.513 73.4471 116.665 72.1622Z" fill="white"/>
<path id="Path 234" d="M61.4126 79.7929C60.3868 75.8662 60.5115 71.7275 61.7715 67.8695C62.9528 63.7577 65.3318 60.0911 68.6059 57.3374C65.9787 60.5282 63.9622 64.176 62.6578 68.0981C61.5743 71.896 61.1533 75.852 61.4126 79.7929Z" fill="white"/>
<path id="Path 235" d="M101.413 58.3623C100.114 56.7688 98.5282 55.432 96.7381 54.4206C95.054 53.3291 93.1838 52.5568 91.2202 52.1423C93.0397 52.9579 94.8142 53.8672 96.5399 54.8662C98.2243 55.9449 99.8518 57.1118 101.413 58.3623Z" fill="white"/>
<path id="Path 236" d="M64.1994 83.2893L62.1381 84.5901C62.7451 84.192 63.4465 83.7347 64.1994 83.2893Z" fill="white"/>
<path id="Path 237" d="M67.2132 88.2163C65.9085 89.0046 64.7304 89.6512 63.9894 90.069C65.0615 89.4489 66.1358 88.8312 67.2132 88.2163Z" fill="white"/>
</g>
<defs>
<filter id="filter0_b_225_858" x="-300" y="-300" width="750" height="750" filterUnits="userSpaceOnUse" color-interpolation-filters="sRGB">
<feFlood flood-opacity="0" result="BackgroundImageFix"/>
<feGaussianBlur in="BackgroundImageFix" stdDeviation="150"/>
<feComposite in2="SourceAlpha" operator="in" result="effect1_backgroundBlur_225_858"/>
<feBlend mode="normal" in="SourceGraphic" in2="effect1_backgroundBlur_225_858" result="shape"/>
</filter>
</defs>
</svg>
