<?xml version="1.0" encoding="utf-8"?>
<!-- Generator: Adobe Illustrator 28.0.0, SVG Export Plug-In . SVG Version: 6.00 Build 0)  -->
<svg version="1.1" id="Layer_1" xmlns="http://www.w3.org/2000/svg" xmlns:xlink="http://www.w3.org/1999/xlink" x="0px" y="0px"
	 viewBox="0 0 150 150" style="enable-background:new 0 0 150 150;" xml:space="preserve">
<style type="text/css">
	.st0{fill:#FFFFFF;}
	.st1{fill-rule:evenodd;clip-rule:evenodd;fill:#56CC99;}
	.st2{fill-rule:evenodd;clip-rule:evenodd;fill:#215679;}
</style>
<g id="Logo">
	<g id="BG">
		<path class="st0" d="M75,0L75,0c41.4,0,75,33.6,75,75l0,0c0,41.4-33.6,75-75,75l0,0c-41.4,0-75-33.6-75-75l0,0C0,33.6,33.5,0,75,0
			z"/>
	</g>
	<g>
		<path class="st1" d="M55.9,117.5c5.9-3,12.5-2.8,18.2,0.5c0.2,0.1,0.4,0.1,0.5,0c0.2-0.1,0.3-0.3,0.3-0.5v-13.7
			c0-0.1,0-0.3-0.1-0.4c-7.1-7.5-18.1-9.6-27.4-5.4c-0.3,0.1-0.4,0.4-0.3,0.7l8,18.5c0.1,0.1,0.2,0.2,0.3,0.3
			C55.6,117.6,55.7,117.6,55.9,117.5L55.9,117.5z M95.6,117.5L95.6,117.5c-5.9-3-12.5-2.8-18.2,0.5c-0.2,0.1-0.4,0.1-0.5,0
			c-0.2-0.1-0.3-0.3-0.3-0.5v-13.7c0-0.1,0-0.3,0.1-0.4c7.1-7.5,18.1-9.6,27.4-5.4c0.3,0.1,0.4,0.4,0.3,0.7l-8,18.5
			c-0.1,0.1-0.2,0.2-0.3,0.3C95.8,117.6,95.7,117.6,95.6,117.5L95.6,117.5z"/>
		<path class="st2" d="M78.8,122.4c4.6-4,10.9-3.2,16-0.7c0.2,0.1,0.4,0.1,0.5,0c0.2-0.1,0.3-0.3,0.3-0.5v-1.5
			c0-0.2-0.1-0.4-0.3-0.5c-6-3.4-12.9-2.9-18.5,1c-0.5,0.4-1.8,0.4-2.3,0c-5.6-3.9-12.5-4.3-18.5-1c-0.2,0.1-0.3,0.3-0.3,0.5v1.5
			c0,0.2,0.1,0.4,0.3,0.5s0.4,0.1,0.5,0c5.1-2.5,11.4-3.3,16,0.7l0,0C74.4,123.9,77,123.9,78.8,122.4L78.8,122.4L78.8,122.4z"/>
		<path class="st2" d="M97.3,119l6.4-14.8c0.1-0.2,0.4-0.4,0.6-0.3c0.3,0.1,0.4,0.3,0.4,0.5v4.9c0,0.1,0,0.2-0.1,0.3l-6.4,11.8
			c-0.1,0.2-0.4,0.3-0.6,0.3c-0.2-0.1-0.4-0.3-0.4-0.5v-1.9C97.3,119.1,97.3,119.1,97.3,119L97.3,119z"/>
		<path class="st2" d="M54.1,119l-6.4-14.8c-0.1-0.2-0.4-0.4-0.6-0.3c-0.3,0.1-0.4,0.3-0.4,0.5v4.9c0,0.1,0,0.2,0.1,0.3l6.4,11.8
			c0.1,0.2,0.4,0.3,0.6,0.3c0.2-0.1,0.4-0.3,0.4-0.5v-1.9C54.2,119.1,54.1,119.1,54.1,119L54.1,119z"/>
		<path class="st2" d="M26.8,51c21,11.7,35.4,3.7,43-24c0.2-0.7,0.8-1.1,1.5-1s1.2,0.7,1.2,1.3c0.5,33.9-17.6,64.6-45.9,81
			c-0.6,0.4-1.4,0.2-1.8-0.4c-0.4-0.6-0.4-1.3,0.1-1.8c9.3-9.3,13.1-19.2,11.5-29.8c0-0.3,0.1-0.6,0.4-0.7c0.3-0.1,0.6-0.1,0.8,0.1
			c1.9,2,3.7,4,5.5,6c0.2,0.2,0.6,0.3,0.9,0.1c0.3-0.2,0.4-0.5,0.3-0.8c-4.1-10.5-10.2-18.1-19.4-28.1C24,51.9,25.5,50.2,26.8,51
			L26.8,51z"/>
		<path class="st2" d="M52.7,45.9c-2.4,3.4-7.2,4.2-10.6,1.8c-3.4-2.4-4.2-7.2-1.8-10.6s7.2-4.2,10.6-1.8
			C54.4,37.7,55.2,42.5,52.7,45.9L52.7,45.9z"/>
		<path class="st2" d="M124.6,51c-21,11.7-35.4,3.7-43-24c-0.2-0.7-0.8-1.1-1.5-1s-1.2,0.7-1.2,1.3c-0.5,33.9,17.6,64.6,45.9,81
			c0.6,0.4,1.4,0.2,1.8-0.4s0.4-1.3-0.1-1.8c-9.3-9.3-13.1-19.2-11.5-29.8c0-0.3-0.1-0.6-0.4-0.7s-0.6-0.1-0.8,0.1
			c-1.9,2-3.7,4-5.5,6c-0.2,0.2-0.6,0.3-0.9,0.1c-0.3-0.2-0.4-0.5-0.3-0.8c4.1-10.5,10.2-18.1,19.4-28.1
			C127.4,51.9,126,50.2,124.6,51L124.6,51z"/>
		<path class="st2" d="M98.7,45.9c2.4,3.4,7.2,4.2,10.6,1.8s4.2-7.2,1.8-10.6c-2.4-3.4-7.2-4.2-10.6-1.8S96.3,42.5,98.7,45.9
			L98.7,45.9z"/>
		<path class="st1" d="M76.7,69.6l2.2,6.9c0.1,0.5,0.6,0.8,1,0.8h7.3c0.5,0,0.9,0.3,1,0.8s0,0.9-0.4,1.2l-5.9,4.3
			c-0.4,0.3-0.5,0.8-0.4,1.2l2.3,6.9c0.1,0.5,0,0.9-0.4,1.2c-0.4,0.3-0.9,0.3-1.3,0l-5.9-4.3c-0.4-0.3-0.9-0.3-1.3,0L69,92.9
			c-0.4,0.3-0.9,0.3-1.3,0c-0.4-0.3-0.5-0.8-0.4-1.2l2.3-6.9c0.1-0.5,0-0.9-0.4-1.2l-5.9-4.3c-0.4-0.3-0.5-0.8-0.4-1.2
			c0.1-0.5,0.6-0.8,1-0.8h7.3c0.5,0,0.9-0.3,1-0.8l2.2-6.9c0.1-0.5,0.6-0.8,1-0.8S76.6,69.1,76.7,69.6L76.7,69.6z"/>
	</g>
</g>
</svg>
