<svg width="150" height="150" viewBox="0 0 150 150" fill="none" xmlns="http://www.w3.org/2000/svg">
<g id="Logo">
<g id="BG" filter="url(#filter0_b_225_842)">
<rect x="6.10352e-05" width="150" height="150" rx="75" fill="white"/>
</g>
<path id="Path 221" d="M60.4504 107.339C60.6157 107.105 60.781 106.863 60.9382 106.621L61.0873 106.399L40.1772 95.4322L39.6449 95.1943V54.1883L39.512 54.0875L35.0001 50.7046V97.4764L59.2487 108.956C59.66 108.437 60.0607 107.898 60.4504 107.339Z" fill="#80ED99"/>
<path id="Path 222" d="M98.3153 112.939C96.4133 112.952 94.5257 112.607 92.751 111.923C90.6897 111.115 88.8569 109.815 87.4125 108.137V108.089C86.7733 107.352 86.1988 106.561 85.6949 105.726C85.5471 105.489 85.4126 105.247 85.2916 105C84.9663 104.411 84.6613 103.791 84.3764 103.137C84.2675 102.883 84.1548 102.625 84.054 102.363C83.2048 100.181 82.5778 97.9179 82.1829 95.6095C81.359 90.6927 81.1289 85.6948 81.4975 80.7231C82.1825 71.4736 85.4455 62.601 90.9164 55.1115C92.4682 52.9186 94.1571 50.8258 95.9727 48.8457L76.2881 64.3409L51.2571 46.8539C55.5718 51.1604 59.2255 56.0818 62.0994 61.458C63.6608 64.3947 64.951 67.4678 65.954 70.639C66.6992 72.9936 67.2665 75.4007 67.6514 77.8402C67.7118 78.2192 67.7603 78.6023 67.8167 78.9853C68.1322 81.2992 68.2672 83.634 68.2201 85.9688C68.2218 85.9984 68.2218 86.028 68.2201 86.0575C68.2201 86.243 68.2201 86.4285 68.2201 86.6099C68.2201 86.7914 68.2201 86.8962 68.1999 87.0373C68.1797 87.1784 68.1998 87.4042 68.1716 87.5897C67.9929 90.5938 67.4818 93.5688 66.6475 96.4602C66.5669 96.7385 66.4823 97.0126 66.3936 97.2949C66.0414 98.4104 65.638 99.5085 65.1837 100.589C64.5857 102.021 63.9004 103.415 63.1315 104.762C62.9904 105.008 62.8534 105.246 62.7082 105.488C61.9129 106.811 61.0418 108.088 60.0994 109.31C59.9099 109.556 59.6963 109.802 59.5149 110.048C58.5062 111.287 57.4292 112.469 56.2891 113.588L55.8215 114.044C55.3699 114.479 54.9022 114.907 54.4224 115.33C51.7541 117.672 48.8439 119.722 45.7413 121.447C56.3917 120.444 66.5822 116.621 75.2639 110.371L75.4859 110.681C78.4044 114.552 82.4685 117.405 87.1009 118.835C91.7333 120.264 96.6984 120.198 101.291 118.645C104.282 117.631 107.038 116.025 109.393 113.922C111.749 111.818 113.656 109.261 115 106.403C110.232 110.227 104.412 112.507 98.3153 112.939Z" fill="#22577A"/>
<path id="Path 223" d="M114.855 50.7046V97.4764L89.856 109.306C89.3635 108.917 88.8987 108.494 88.4649 108.04L88.2674 107.831L88.0577 107.597L87.8883 107.399C87.8278 107.335 87.7473 107.234 87.6787 107.149C87.4812 106.907 87.2754 106.657 87.1061 106.399L109.762 94.6016L110.327 94.3395V54.0754L111.359 53.3013L112.194 52.6763L114.855 50.7046Z" fill="#80ED99"/>
<path id="Path 224" d="M109.508 47.0273V93.7992L109.391 93.8556L93.9767 101.879L86.6344 105.702C86.5618 105.593 86.4892 105.48 86.4207 105.363C86.3521 105.246 86.2957 105.166 86.2393 105.065C86.1828 104.964 86.078 104.783 85.9974 104.637C85.8079 104.295 85.6183 103.94 85.4449 103.573C85.3239 103.323 85.2071 103.065 85.0901 102.799L85.0377 102.67L86.2756 101.887L104.42 89.5373V50.8296L109.508 47.0273Z" fill="#57CC99"/>
<path id="Path 225" d="M103.573 68.2884V89.1179L85.9291 101.142L84.7195 101.908C84.2354 100.655 83.8315 99.3729 83.5099 98.0691C83.4413 97.7869 83.3727 97.5006 83.3082 97.2103C83.28 97.0813 83.2478 96.9482 83.2236 96.8071C83.1994 96.666 83.1752 96.5853 83.151 96.4644L98.1826 87.3559V76.4291L82.1349 85.0214C82.1349 83.6948 82.1873 82.2715 82.2841 80.7635C82.6567 75.2109 84.0223 69.7702 86.3161 64.6998V77.6951L102.763 68.7359L103.573 68.2884Z" fill="#38A3A5"/>
<path id="Path 226" d="M51.6848 74.8283V86.868L65.7284 96.3554C65.684 96.5127 65.6357 96.6699 65.5873 96.8272C65.2245 97.9938 64.8063 99.147 64.3332 100.287C64.055 100.952 63.7567 101.605 63.4502 102.238L46.5158 90.7872V43.6484C52.1212 48.3725 56.8633 54.0344 60.531 60.3815L51.6969 54.1116V67.5222L66.8978 78.3805L66.9581 78.7837C66.9863 79.0055 67.0188 79.2273 67.043 79.449C67.043 79.4813 67.043 79.5176 67.043 79.5498L67.0994 80.0418C67.0994 80.199 67.1316 80.3805 67.1518 80.5498C67.1719 80.7191 67.18 80.8562 67.1921 81.0094C67.2042 81.1627 67.2162 81.3118 67.2283 81.4651C67.2404 81.6183 67.2285 81.6667 67.2527 81.7634V81.8441C67.2527 81.8723 67.2527 81.8965 67.2527 81.9207V81.9771C67.2488 82.0106 67.2488 82.0444 67.2527 82.0779C67.2565 82.0993 67.2565 82.1211 67.2527 82.1424C67.2809 82.586 67.301 83.0295 67.3172 83.469C67.3172 83.7029 67.3172 83.9327 67.3172 84.1665C67.3172 84.6262 67.3172 85.0845 67.3172 85.5415L51.6848 74.8283Z" fill="#38A3A5"/>
<path id="Path 227" d="M63.071 102.988C62.817 103.48 62.5549 103.964 62.2847 104.436L62.2567 104.488C62.1276 104.718 61.9985 104.94 61.8533 105.161L61.825 105.214C61.7309 105.372 61.6343 105.53 61.5349 105.686L52.6643 101.041L40.5278 94.6781L40.4512 94.6378V47.866L45.6323 51.7529V52.4181V91.2428L63.071 102.988Z" fill="#57CC99"/>
<path id="Path 228" d="M103.573 42.8098V54.8415L102.738 55.2447L86.949 63.2846C90.6595 55.8846 95.8159 49.3036 102.113 43.9307C102.323 43.7453 102.517 43.5679 102.742 43.3945L102.787 43.3582L103.295 43.0034L103.573 42.7816V42.8098Z" fill="#38A3A5"/>
<path id="Path 229" d="M83.8121 44.5113L83.7315 44.3823H83.5783C81.1576 44.3683 78.7854 45.0605 76.752 46.3741C77.6186 45.415 78.7357 44.7168 79.9776 44.3581L80.3284 44.2412L80.5179 44.1847L80.7276 44.1243L81.0824 44.0275H81.1348L81.5623 43.9186L81.671 43.8944L82.0179 43.8178L82.1389 43.7936L82.5703 43.7089H82.6066L83.1791 43.6081L83.421 43.5678V40.318L91.4851 37.7737L77.2076 29L61.2245 34.0642L64.1519 35.8625C63.9543 36.3222 63.7487 36.7778 63.543 37.2254C62.754 38.745 62.2033 40.3769 61.9101 42.0639C61.8419 42.87 61.9591 43.6809 62.2527 44.4347L61.5148 44.7129L62.8333 48.1644L65.3251 47.2128L64.0067 43.7613L63.4058 43.9871C63.4167 43.2277 63.495 42.4708 63.6397 41.7252C63.9522 40.3704 64.4007 39.0505 64.9784 37.7858C65.1316 37.4149 65.2888 37.0319 65.442 36.6569L68.9943 38.8342L69.1314 38.7777C69.5544 38.5947 69.9864 38.4331 70.4257 38.2939C73.0058 37.567 75.7162 37.4292 78.3567 37.8907H77.8447H77.4737L76.8286 37.9189L76.3488 37.9471L75.873 37.9834H75.8326L75.373 38.0278H75.3206L74.877 38.0721H74.8085L74.4054 38.1245H74.3247L73.9214 38.185C73.8932 38.185 73.8609 38.185 73.8327 38.185L73.4296 38.2536H73.3287L72.9578 38.3302L72.8489 38.3544L72.4901 38.435L72.3692 38.4632L72.0385 38.5519L71.9015 38.5882L71.5909 38.681L71.4418 38.7253L71.1595 38.818L70.9902 38.8785L70.7401 38.9713L70.5547 39.0479L70.3854 39.1164L70.22 39.189L70.0507 39.2656V42.3541C69.6269 42.7113 69.2356 43.1053 68.8814 43.5315C68.1011 44.4708 67.5141 45.555 67.1539 46.7218C66.7937 47.8885 66.6675 49.115 66.7825 50.3306C66.8975 51.5463 67.2515 52.7273 67.8241 53.8058C68.3967 54.8844 69.1767 55.8392 70.1192 56.6155C71.7805 57.9886 73.867 58.7425 76.0222 58.7485C76.3125 58.7485 76.6027 58.7485 76.8931 58.7082C79.345 58.4772 81.6052 57.2825 83.1769 55.3865C84.7486 53.4904 85.5035 51.048 85.2757 48.5958C85.1218 47.1368 84.6198 45.736 83.8121 44.5113ZM63.3817 44.5516L63.6479 44.4508L64.555 46.8297L63.1357 47.37L62.2285 44.9951L62.4141 44.9226L62.539 45.2532C62.7369 45.7485 62.9065 46.2547 63.047 46.7693L63.6075 46.6443C63.4771 45.9538 63.4016 45.254 63.3817 44.5516Z" fill="#22577A"/>
</g>
<defs>
<filter id="filter0_b_225_842" x="-300" y="-300" width="750" height="750" filterUnits="userSpaceOnUse" color-interpolation-filters="sRGB">
<feFlood flood-opacity="0" result="BackgroundImageFix"/>
<feGaussianBlur in="BackgroundImageFix" stdDeviation="150"/>
<feComposite in2="SourceAlpha" operator="in" result="effect1_backgroundBlur_225_842"/>
<feBlend mode="normal" in="SourceGraphic" in2="effect1_backgroundBlur_225_842" result="shape"/>
</filter>
</defs>
</svg>
