<svg width="150" height="150" viewBox="0 0 150 150" fill="none" xmlns="http://www.w3.org/2000/svg">
<g id="Logo">
<g id="BG" filter="url(#filter0_b_225_821)">
<rect width="150" height="150" rx="75" fill="#FF9066"/>
</g>
<path id="Path 5852-2" d="M32.0625 89.3578C32.2314 90.1987 32.7237 90.9397 33.4338 91.4223C34.2219 91.8585 35.1159 92.0678 36.0161 92.0268C36.7943 92.0165 37.5699 91.9325 38.3322 91.7757C39.1977 91.6075 40.0451 91.3575 40.8633 91.0292C41.2315 91.7322 41.5248 92.4716 41.7386 93.2356C41.9901 94.1039 42.1276 95.0012 42.1473 95.9048C40.0724 96.6813 37.8745 97.0796 35.6586 97.081C34.1587 97.1115 32.666 96.8645 31.2562 96.3527C30.1182 95.9357 29.0933 95.26 28.262 94.3791C27.4767 93.5147 26.8926 92.4876 26.5515 91.3714C26.1726 90.1377 25.9868 88.8529 26.0007 87.5625C25.9911 86.2711 26.1831 84.9862 26.5697 83.7538C26.9228 82.6166 27.5049 81.5632 28.2803 80.6586C29.0648 79.7619 30.0389 79.0507 31.1324 78.5759C32.3933 78.0421 33.7533 77.7814 35.1225 77.8111C36.2781 77.7907 37.4253 78.0087 38.4925 78.4519C39.4453 78.8557 40.302 79.4564 41.0058 80.2143C41.7161 80.9971 42.2561 81.9184 42.5921 82.92C42.9677 84.0255 43.1539 85.1863 43.1428 86.3537C43.1461 86.9303 43.1156 87.5066 43.0516 88.0797C42.9932 88.5895 42.9387 89.0118 42.8913 89.3432L32.0625 89.3578ZM34.9146 82.3481C34.1936 82.3383 33.495 82.5981 32.9561 83.0764C32.3591 83.6584 32.0134 84.4504 31.993 85.2831H37.6937C37.6728 84.524 37.404 83.7925 36.9279 83.2002C36.6808 82.9127 36.3706 82.6861 36.0214 82.5377C35.6723 82.3893 35.2935 82.3267 34.9146 82.3481ZM56.1929 81.03C57.1922 81.4329 58.0896 81.8421 58.8847 82.2572C59.6431 82.6445 60.335 83.1497 60.9345 83.7538C61.5182 84.3533 61.968 85.0692 62.2546 85.8548C62.5856 86.8096 62.7428 87.8159 62.7181 88.826C62.7356 89.9918 62.5107 91.1488 62.0579 92.2235C61.6205 93.2279 60.9547 94.1168 60.1135 94.8198C59.1846 95.5821 58.1118 96.1504 56.9587 96.4911C55.5658 96.903 54.1183 97.1008 52.6658 97.0774C51.3558 97.0906 50.0482 96.9684 48.7634 96.7132C47.5209 96.4448 46.3014 96.0796 45.1161 95.6208C45.2233 94.7271 45.3901 93.8414 45.6156 92.9698C45.8588 92.0328 46.1433 91.0776 46.4691 90.1041C48.2552 90.9573 50.1953 91.4415 52.1734 91.5279C53.1488 91.5775 54.1219 91.3887 55.0077 90.978C55.343 90.7921 55.617 90.5135 55.7975 90.1757C55.978 89.8379 56.0571 89.4554 56.025 89.0738C56.0338 88.7347 55.9601 88.3984 55.81 88.0941C55.6715 87.8249 55.4776 87.5879 55.241 87.3987C54.9957 87.2042 54.7261 87.0425 54.4387 86.918C54.142 86.7869 53.8392 86.6656 53.5304 86.5539L51.5354 85.8074C50.7224 85.5227 49.9403 85.1568 49.201 84.7151C48.5245 84.3092 47.9163 83.7993 47.3992 83.204C46.8925 82.6106 46.4994 81.9292 46.2394 81.194C45.9511 80.3342 45.8132 79.4312 45.8311 78.5248C45.8094 77.3768 46.0276 76.237 46.4727 75.1784C46.8818 74.2317 47.4961 73.3873 48.271 72.7058C49.0861 72.0064 50.039 71.4855 51.0683 71.1765C52.2579 70.8187 53.4951 70.6445 54.7374 70.6596C55.9177 70.6584 57.095 70.7804 58.2498 71.0236C59.4772 71.2892 60.686 71.6346 61.8682 72.0578C61.7548 72.9052 61.5818 73.7436 61.3504 74.5667C61.1108 75.4529 60.7946 76.3167 60.4056 77.1484C59.788 76.8862 59.0586 76.6132 58.2173 76.3292C57.2139 76.0203 56.1665 75.8764 55.1168 75.9031C54.7494 75.901 54.383 75.9364 54.0228 76.0087C53.6982 76.0725 53.3855 76.1866 53.0963 76.3472C52.8244 76.5001 52.5968 76.721 52.4361 76.9881C52.2613 77.2962 52.1754 77.6466 52.1881 78.0005C52.1664 78.2914 52.2171 78.5831 52.3354 78.8499C52.4538 79.1167 52.6362 79.3502 52.8666 79.5298C53.361 79.8841 53.9005 80.1707 54.4712 80.3819L56.1929 81.03ZM77.4712 89.8566H72.1934V96.6185C71.5758 96.7132 71.0178 96.7848 70.5194 96.8334C70.0209 96.882 69.57 96.9063 69.1663 96.9063C68.7627 96.9063 68.3118 96.882 67.8133 96.8334C67.3136 96.7861 66.7699 96.7168 66.1717 96.6185V78.2554C66.6836 78.1379 67.2027 78.0538 67.7256 78.004C68.2362 77.9555 68.7287 77.9314 69.2029 77.9314C69.677 77.9314 70.1634 77.9555 70.6619 78.004C71.1778 78.0511 71.6895 78.1352 72.1934 78.2554V84.5184H77.4712V78.2554C77.9818 78.138 78.4998 78.054 79.0214 78.004C79.5321 77.9555 80.0257 77.9314 80.5023 77.9314C80.9788 77.9314 81.4652 77.9555 81.9613 78.004C82.4772 78.0511 82.9889 78.1352 83.4928 78.2554V96.6185C82.8752 96.7132 82.3173 96.7848 81.8188 96.8334C81.3203 96.882 80.8694 96.9049 80.4657 96.9025C80.0621 96.9025 79.6112 96.8782 79.1127 96.8296C78.6142 96.7811 78.0669 96.7096 77.4712 96.6149V89.8566ZM86.5894 87.5443C86.5736 86.1986 86.7719 84.859 87.1767 83.5754C87.5351 82.4382 88.1305 81.3895 88.9237 80.4983C89.7159 79.6298 90.6965 78.9536 91.7905 78.5212C93.0525 78.0375 94.3962 77.8025 95.7477 77.8293C97.1112 77.8008 98.4677 78.0357 99.7418 78.5212C100.837 78.9532 101.819 79.6294 102.612 80.4983C103.406 81.3893 104.001 82.4381 104.359 83.5754C104.764 84.8591 104.962 86.1986 104.947 87.5443C104.962 88.8661 104.763 90.1817 104.359 91.4405C103.998 92.5614 103.403 93.5928 102.612 94.4664C101.817 95.3245 100.835 95.9886 99.7418 96.4074C98.4652 96.8823 97.1098 97.112 95.7477 97.0845C94.3976 97.11 93.055 96.8803 91.7905 96.4074C90.6984 95.9886 89.7175 95.3244 88.9237 94.4664C88.1331 93.5928 87.5376 92.5614 87.1767 91.4405C86.772 90.1818 86.5737 88.8661 86.5894 87.5443ZM98.8518 87.5443C98.9249 86.3331 98.6594 85.1255 98.0856 84.0559C97.8417 83.6629 97.4964 83.3429 97.0856 83.1295C96.6748 82.9161 96.2141 82.8174 95.7517 82.8435C95.2917 82.816 94.8326 82.9143 94.4245 83.128C94.0163 83.3417 93.6746 83.6624 93.4356 84.0559C92.8745 85.1296 92.6158 86.3353 92.6877 87.5443C92.6183 88.7414 92.877 89.9347 93.4356 90.9963C93.675 91.389 94.0168 91.7093 94.4249 91.9224C94.8331 92.1354 95.292 92.2332 95.7517 92.2053C96.2138 92.2322 96.6743 92.134 97.0852 91.9213C97.496 91.7085 97.8415 91.3888 98.0856 90.9963C98.6568 89.9388 98.9223 88.7436 98.8518 87.5443ZM113.929 87.7592C114.076 87.787 114.225 87.8053 114.375 87.8139C114.553 87.8139 114.703 87.8139 114.819 87.8139C115.554 87.8445 116.277 87.6248 116.869 87.1911C117.158 86.925 117.382 86.5951 117.521 86.2279C117.66 85.8607 117.712 85.4662 117.672 85.0755C117.693 84.7077 117.633 84.3395 117.494 83.9981C117.355 83.6567 117.142 83.3506 116.869 83.102C116.319 82.635 115.614 82.3885 114.892 82.4101H114.491C114.307 82.411 114.123 82.4232 113.941 82.4466L113.929 87.7592ZM108.05 78.3281C109.144 78.163 110.268 78.0417 111.42 77.964C112.573 77.8863 113.683 77.8451 114.75 77.8402C115.827 77.8389 116.902 77.9401 117.96 78.1425C118.96 78.3228 119.916 78.6936 120.776 79.2348C121.624 79.7872 122.317 80.5468 122.789 81.4416C123.343 82.5732 123.606 83.8245 123.555 85.0829C123.591 86.26 123.353 87.4294 122.858 88.4984C122.435 89.3788 121.81 90.1471 121.034 90.7413C120.263 91.3159 119.386 91.733 118.452 91.9686C117.492 92.2141 116.504 92.3364 115.513 92.3326C115.108 92.3326 114.765 92.3326 114.48 92.2962C114.3 92.2876 114.12 92.2634 113.944 92.2235V96.5931C113.397 96.7031 112.844 96.7808 112.288 96.8261C111.802 96.8625 111.369 96.8807 110.99 96.8807C110.611 96.8807 110.176 96.8625 109.688 96.8261C109.143 96.7788 108.601 96.7011 108.065 96.5931L108.05 78.3281Z" fill="white"/>
<path id="Path 166" d="M49.7078 114.796C49.5546 114.796 49.3652 114.796 49.3761 114.749C49.4017 114.432 49.4126 113.948 49.4126 113.383C49.4126 111.65 49.3177 109.206 49.2448 108.828C49.2448 108.78 49.2228 108.77 49.2118 108.77C49.2009 108.77 49.1428 108.839 49.1428 108.839C48.5673 110.189 48.0799 111.576 47.6838 112.99C47.6474 113.074 47.352 113.117 47.1878 113.117C47.0082 113.123 46.8294 113.086 46.666 113.012C46.666 112.964 45.2982 109.086 45.1305 108.872C45.1086 108.824 45.0831 108.802 45.0721 108.802C45.0612 108.802 45.0502 108.824 45.0356 108.886C44.8715 110.136 44.8008 111.397 44.8241 112.658C44.8132 113.256 44.8327 113.854 44.8825 114.45C44.5212 114.659 44.107 114.758 43.6901 114.734C43.5458 114.741 43.4013 114.718 43.2667 114.665C43.2667 112.447 43.7155 107.801 43.7155 107.801C43.4761 107.443 43.3192 107.036 43.2561 106.61C43.2516 106.598 43.2516 106.586 43.2561 106.574C43.7633 106.489 44.2773 106.45 44.7916 106.457C45.127 106.45 45.4621 106.469 45.7943 106.515C45.8891 106.599 46.8594 109.392 47.1184 110.193C47.1184 110.193 47.1439 110.251 47.1767 110.251C47.2095 110.251 47.2241 110.226 47.235 110.179C47.6593 108.92 48.1765 107.694 48.7818 106.512C49.3107 106.414 49.8491 106.379 50.3864 106.406C50.5286 106.406 50.9665 106.406 50.9665 106.465C50.889 106.946 50.7451 107.414 50.5395 107.856C50.5395 107.856 50.9518 111.595 50.9518 114.472C50.5791 114.702 50.1456 114.815 49.7078 114.796Z" fill="white"/>
<path id="Path 167" d="M55.4453 113.554C55.4453 113.533 55.4453 113.533 55.4453 113.533C55.2801 113.804 55.0527 114.031 54.7819 114.197C54.5111 114.363 54.2047 114.462 53.8879 114.487C52.8265 114.487 52.5533 113.438 52.4694 112.564C52.4694 112.411 52.4476 112.116 52.4476 111.774C52.432 111.006 52.4671 110.239 52.5531 109.476C52.8488 109.29 53.1964 109.203 53.545 109.229C53.545 109.229 53.8152 109.228 53.8772 109.29C53.8772 109.37 53.8077 110.317 53.8077 111.177C53.8077 111.435 53.8077 111.683 53.8295 111.905C53.8295 111.905 53.8296 112.859 54.4934 112.859C55.1061 112.859 55.4602 112.069 55.4493 111.963V111.563C55.4493 110.725 55.4854 109.323 55.5218 109.239C55.8175 108.999 56.1921 108.878 56.5726 108.897C56.6733 108.892 56.7736 108.909 56.8678 108.945C56.8678 109.028 56.7729 110.94 56.7729 112.222C56.7632 112.569 56.7793 112.918 56.8206 113.263C56.8464 113.599 56.9552 113.923 57.1376 114.206C56.7942 114.572 56.3286 114.799 55.8286 114.843C55.7812 114.843 55.5328 114.537 55.4635 113.806L55.4453 113.554Z" fill="white"/>
<path id="Path 168" d="M59.862 112.273C59.862 112.72 59.862 113.088 59.8838 113.274C59.9115 113.613 60.0298 113.939 60.2267 114.217C59.8833 114.583 59.4172 114.809 58.9173 114.854C58.8698 114.854 58.6219 114.548 58.5526 113.816C58.5526 113.627 58.5526 113.154 58.5526 112.578C58.5526 111.373 58.6003 110.182 58.6003 108.307C58.6003 107.116 58.5526 106.821 58.5526 106.69C58.5526 106.559 59.2385 106.268 59.647 106.268C59.7477 106.262 59.8482 106.279 59.9422 106.315C59.9203 106.49 59.8838 108.5 59.8838 109.381C59.8838 110.262 59.862 111.144 59.862 112.273Z" fill="white"/>
<path id="Path 169" d="M63.2031 108.016C63.4978 108.002 63.793 108.014 64.0856 108.052C64.0856 108.62 63.874 109.079 63.7427 109.079H63.1884C63.1884 109.949 63.1666 110.918 63.1666 111.708C63.1666 112.498 63.1666 113.125 63.2031 113.372C63.2376 113.754 63.4098 114.11 63.688 114.374C63.5243 114.562 63.3237 114.715 63.0985 114.822C62.8733 114.93 62.6281 114.991 62.3786 115C62.2261 114.861 62.1036 114.692 62.0184 114.505C61.9331 114.317 61.8868 114.114 61.8826 113.907C61.857 113.718 61.8572 113.234 61.8572 112.644C61.8572 111.369 61.8828 109.589 61.8937 109.119C61.529 109.119 61.2334 109.119 61.2334 109.119C61.183 108.988 61.163 108.847 61.1751 108.708C61.1555 108.486 61.1916 108.263 61.2806 108.06L61.908 108.034C61.9076 107.66 61.8836 107.287 61.8354 106.916C61.8354 106.749 62.5426 106.49 62.9694 106.49C63.0701 106.485 63.1709 106.501 63.265 106.537C63.2541 106.683 63.2323 107.262 63.2031 108.016Z" fill="white"/>
<path id="Path 170" d="M65.7015 108.806C65.5979 108.812 65.4943 108.794 65.3983 108.754C65.3023 108.715 65.2165 108.655 65.1467 108.578C65.0769 108.501 65.0251 108.41 64.9949 108.311C64.9647 108.212 64.9569 108.107 64.9722 108.005C64.9909 107.794 65.0865 107.596 65.2411 107.451C65.3957 107.305 65.5985 107.221 65.811 107.215C65.9123 107.214 66.0125 107.235 66.1053 107.276C66.1981 107.316 66.2816 107.375 66.3502 107.45C66.4188 107.524 66.471 107.611 66.5038 107.707C66.5366 107.803 66.5493 107.904 66.5407 108.005C66.5239 108.218 66.4288 108.417 66.2741 108.565C66.1193 108.713 65.9155 108.799 65.7015 108.806ZM66.4312 109.534C66.4312 109.592 66.3947 110.962 66.3947 112.047C66.3947 112.589 66.3947 113.063 66.4312 113.263C66.4533 113.6 66.5623 113.925 66.7482 114.206C66.4048 114.572 65.9392 114.798 65.4393 114.843C65.3918 114.843 65.1544 114.538 65.0742 113.806C65.0742 113.653 65.0523 113.263 65.0523 112.779C65.0523 111.562 65.0887 109.771 65.1325 109.676C65.4232 109.51 65.7581 109.436 66.092 109.465C66.092 109.465 66.3729 109.48 66.4312 109.549V109.534Z" fill="white"/>
<path id="Path 171" d="M73.1677 114.796C71.9318 112.292 71.083 109.616 70.6509 106.858C71.0239 106.642 71.4491 106.533 71.8801 106.541C71.8801 106.541 72.1281 106.541 72.1281 106.578C72.5374 108.792 73.1478 110.963 73.9518 113.067C73.9518 113.067 74.0249 113.209 74.0796 113.219C74.1343 113.23 74.2 113.147 74.2109 113.088C75.004 111.353 75.5136 109.501 75.7207 107.605C75.7207 107.415 75.2504 107.135 74.9914 107.109C74.9858 107.083 74.9858 107.056 74.9914 107.029C74.9984 106.804 75.0541 106.583 75.1552 106.381C75.8707 106.198 76.6055 106.099 77.344 106.086C77.344 106.086 77.5189 106.112 77.5189 106.134C77.1201 109.039 76.3006 111.871 75.0862 114.541C74.5292 114.758 73.9327 114.855 73.3356 114.825C73.278 114.832 73.2195 114.822 73.1677 114.796Z" fill="white"/>
<path id="Path 172" d="M78.5512 112.04C78.5236 111.654 78.5782 111.267 78.711 110.903C78.8438 110.54 79.0519 110.209 79.3219 109.931C79.5919 109.654 79.9174 109.436 80.2773 109.293C80.6373 109.15 81.0238 109.085 81.4109 109.101C81.595 109.078 81.7819 109.094 81.9594 109.148C82.137 109.201 82.3013 109.292 82.4416 109.413C82.5819 109.534 82.6949 109.684 82.7737 109.851C82.8525 110.019 82.8952 110.201 82.8988 110.386C82.8097 111.011 82.5329 111.593 82.105 112.056C81.6771 112.52 81.1184 112.843 80.5026 112.983C80.5026 113.052 80.7505 113.303 81.3633 113.303C81.856 113.321 82.3449 113.21 82.7822 112.983C82.7893 112.981 82.7969 112.981 82.804 112.983C82.8259 112.983 82.837 113.136 82.837 113.209C82.8446 113.583 82.7416 113.952 82.5413 114.268C82.0591 114.494 81.5257 114.588 80.9951 114.541C80.6628 114.564 80.3295 114.515 80.0182 114.397C79.707 114.278 79.4253 114.094 79.1928 113.856C78.9602 113.618 78.7822 113.332 78.6714 113.018C78.5606 112.705 78.5197 112.371 78.5512 112.04ZM81.1482 110.164C80.5099 110.164 79.9301 110.922 79.9301 111.85C79.9301 111.982 79.9298 112.014 79.9773 112.014C80.4733 112.014 81.5128 111.286 81.5128 110.507C81.5151 110.459 81.5072 110.412 81.4897 110.368C81.4722 110.324 81.4456 110.285 81.4113 110.252C81.3771 110.219 81.3363 110.194 81.2916 110.178C81.2468 110.163 81.199 110.156 81.1518 110.161L81.1482 110.164Z" fill="white"/>
<path id="Path 173" d="M84.4193 110.128C84.395 109.863 84.4146 109.596 84.4776 109.338C84.7923 109.117 85.169 109.001 85.5537 109.006C85.6595 109.006 85.8017 109.028 85.8017 109.065C85.8017 109.159 85.7652 109.454 85.7652 109.68C85.7652 109.906 85.7652 109.917 85.8017 109.917C85.8382 109.917 85.8382 109.895 85.8382 109.895C86.0169 109.678 86.2392 109.502 86.4905 109.376C86.7418 109.251 87.0166 109.179 87.2972 109.166C88.7562 109.166 88.807 111.1 88.807 113.117C88.807 113.897 88.7705 114.497 88.7705 114.497C88.4605 114.671 88.1079 114.753 87.7531 114.734C87.6208 114.735 87.489 114.715 87.3627 114.676C87.4395 114.006 87.4784 113.333 87.4793 112.659C87.4793 111.515 87.4322 110.619 86.783 110.619C86.0171 110.619 85.8017 111.457 85.8017 111.457C85.8017 111.457 85.8017 112.211 85.8017 112.953C85.819 113.391 85.8033 113.829 85.7545 114.264C85.3888 114.488 84.9645 114.598 84.5359 114.581C84.4411 114.581 84.361 114.581 84.361 114.545C84.4275 113.966 84.4558 113.383 84.4451 112.801C84.4561 111.85 84.4193 110.823 84.4193 110.128Z" fill="white"/>
<path id="Path 174" d="M94.7122 110.725C94.7122 111.621 94.7123 112.753 94.7816 113.107C94.8133 113.453 94.9496 113.782 95.1721 114.05C94.8215 114.412 94.3508 114.634 93.848 114.676C93.6152 114.435 93.4847 114.115 93.4833 113.78C93.4833 113.744 93.4831 113.744 93.4575 113.744C93.432 113.744 93.4215 113.765 93.4215 113.765C93.2512 113.994 93.0275 114.178 92.7701 114.301C92.5127 114.424 92.2294 114.483 91.9442 114.472C91.6982 114.451 91.4587 114.382 91.2394 114.269C91.0201 114.156 90.8252 114.001 90.666 113.813C90.5067 113.624 90.3864 113.406 90.3116 113.171C90.2367 112.937 90.2091 112.689 90.2301 112.444C90.2071 112.016 90.2733 111.588 90.4246 111.188C90.576 110.787 90.8089 110.422 91.109 110.116C91.409 109.81 91.7697 109.569 92.1677 109.41C92.5657 109.25 92.9927 109.175 93.4215 109.188C93.4215 109.057 93.3992 108.125 93.3992 107.444C93.3862 107.187 93.3973 106.93 93.4321 106.676C93.7427 106.424 94.1268 106.28 94.5265 106.264C94.6272 106.26 94.7276 106.276 94.8217 106.312C94.756 107.295 94.7122 109.545 94.7122 110.725ZM93.4357 110.43C93.4357 110.408 93.2572 110.408 93.2572 110.408C93.0349 110.401 92.8136 110.441 92.608 110.526C92.4024 110.611 92.2171 110.738 92.0644 110.899C91.9117 111.061 91.795 111.253 91.722 111.462C91.6491 111.672 91.6217 111.895 91.6414 112.116C91.6414 112.659 91.8895 113.107 92.4549 113.107C93.1406 113.107 93.3992 112.305 93.3992 112.163C93.3992 112.021 93.4138 110.714 93.4357 110.416V110.43Z" fill="white"/>
<path id="Path 175" d="M96.5285 111.989C96.5232 111.593 96.5988 111.2 96.7507 110.834C96.9026 110.468 97.1275 110.137 97.4119 109.861C97.6962 109.585 98.0338 109.37 98.4043 109.229C98.7747 109.087 99.1705 109.023 99.5667 109.039C99.7829 109.04 99.9976 109.072 100.205 109.134C100.224 109.186 100.231 109.242 100.227 109.298C100.224 109.44 100.212 109.583 100.19 109.724C100.618 109.864 100.986 110.146 101.231 110.524C101.476 110.902 101.583 111.352 101.536 111.799C101.565 112.149 101.522 112.501 101.408 112.834C101.295 113.166 101.113 113.471 100.876 113.73C100.639 113.99 100.35 114.197 100.029 114.34C99.7075 114.482 99.3601 114.557 99.0084 114.559C98.6702 114.576 98.3325 114.52 98.0178 114.395C97.7031 114.27 97.4188 114.08 97.1839 113.836C96.949 113.593 96.7689 113.302 96.6559 112.983C96.5428 112.665 96.4995 112.325 96.5285 111.989ZM99.2822 110.798H99.1874C99.1703 110.749 99.1624 110.697 99.1652 110.645C99.1661 110.53 99.1772 110.416 99.1981 110.303C99.002 110.323 98.812 110.381 98.6389 110.475C98.4658 110.569 98.3129 110.697 98.1897 110.85C98.0664 111.004 97.9754 111.181 97.9212 111.37C97.867 111.559 97.8507 111.757 97.874 111.952C97.874 112.069 97.8741 113.369 99.0084 113.369C99.5628 113.369 100.179 112.957 100.179 111.912C100.179 110.867 99.5303 110.798 99.2822 110.798Z" fill="white"/>
<path id="Path 176" d="M106.121 110.656C106.07 110.645 106.019 110.638 105.968 110.634C105.624 110.622 105.287 110.726 105.01 110.93C104.733 111.133 104.534 111.424 104.443 111.755V112.793C104.46 113.279 104.449 113.765 104.41 114.25C104.018 114.484 103.564 114.595 103.108 114.567C103.061 114.567 103.013 114.567 103.013 114.53C103.086 113.912 103.115 113.288 103.097 112.666C103.097 111.723 103.076 110.67 103.076 109.989C103.058 109.746 103.074 109.501 103.123 109.261C103.437 109.04 103.814 108.924 104.199 108.93C104.305 108.93 104.447 108.952 104.447 108.988C104.447 109.094 104.414 109.541 104.414 109.847C104.414 109.869 104.414 110.121 104.436 110.121C104.458 110.121 104.458 110.12 104.483 110.095C104.689 109.818 104.954 109.59 105.259 109.427C105.563 109.264 105.9 109.17 106.245 109.152C106.313 109.291 106.346 109.445 106.34 109.6C106.369 109.965 106.293 110.332 106.121 110.656Z" fill="white"/>
<path id="Path 6382-2" d="M113.937 35.8921V65.7072C113.937 65.9438 113.843 66.1709 113.675 66.3382C113.508 66.5055 113.28 66.5993 113.043 66.5993H108.397L106.902 69.2868V52.9408V40.5311L98.4035 46.0624L94.982 43.8339L94.7451 43.681L91.5537 41.6017L89.8979 40.5093V58.3519L94.986 61.3961V49.8749L98.4071 52.1034L101.821 49.8822V66.5813H83.187C82.9503 66.5804 82.7235 66.486 82.5561 66.3189C82.3888 66.1518 82.2944 65.9253 82.2935 65.689V35.8921C82.2935 35.6555 82.3872 35.4287 82.5548 35.2614C82.7224 35.0941 82.95 35 83.187 35H113.051C113.288 35 113.515 35.0941 113.683 35.2614C113.85 35.4287 113.945 35.6555 113.945 35.8921H113.937Z" fill="white"/>
</g>
<defs>
<filter id="filter0_b_225_821" x="-300" y="-300" width="750" height="750" filterUnits="userSpaceOnUse" color-interpolation-filters="sRGB">
<feFlood flood-opacity="0" result="BackgroundImageFix"/>
<feGaussianBlur in="BackgroundImageFix" stdDeviation="150"/>
<feComposite in2="SourceAlpha" operator="in" result="effect1_backgroundBlur_225_821"/>
<feBlend mode="normal" in="SourceGraphic" in2="effect1_backgroundBlur_225_821" result="shape"/>
</filter>
</defs>
</svg>
