<svg width="56" height="56" viewBox="0 0 56 56" fill="none" xmlns="http://www.w3.org/2000/svg">
<g id="Experience">
<g id="Group">
<g id="Layer_5_21_">
<g id="Group_2">
<path id="Vector" d="M51.7064 47.5815C51.7064 47.5815 45.4909 36.8991 44.376 34.9832C45.6445 34.5962 46.9958 34.2545 47.5572 33.2851C48.4929 31.6697 46.8273 29.0198 47.2647 27.2884C47.7152 25.5065 50.3748 23.9645 50.3748 22.1532C50.3748 20.3885 47.6252 18.3268 47.1744 16.5553C46.734 14.8242 48.3946 12.1714 47.4558 10.558C46.5171 8.9445 43.3904 9.07707 42.1033 7.83855C40.7789 6.564 40.783 3.4456 39.1857 2.59146C37.5818 1.73415 34.9752 3.46678 33.1945 3.05636C31.434 2.65063 29.8612 0 28.0223 0C26.1562 0 23.1881 3.00672 22.7226 3.11493C20.9427 3.52868 18.3328 1.80028 16.7306 2.66123C15.1348 3.51824 15.1446 6.63695 13.8227 7.91361C12.5377 9.1544 9.41082 9.02759 8.47497 10.6429C7.53926 12.258 9.20486 14.9073 8.76765 16.6396C8.32923 18.3763 5.57705 20.136 5.57705 22.1445C5.57705 23.956 8.24327 25.4931 8.69652 27.2742C9.13706 29.0053 7.47646 31.6578 8.41519 33.2718C8.92625 34.1503 10.0858 34.5109 11.2438 34.8576C11.3789 34.898 11.6345 35.0492 11.4614 35.3015C10.6692 36.6689 4.29267 47.6739 4.29267 47.6739C3.7854 48.5492 4.19733 49.2995 5.2078 49.342L10.1539 49.5483C11.1643 49.5908 12.4319 50.3251 12.9713 51.1806L15.6106 55.3686C16.1499 56.2241 17.0057 56.2081 17.5128 55.3329C17.5128 55.3329 24.8975 42.5835 24.9006 42.5799C25.0487 42.4068 25.1976 42.4423 25.2689 42.5029C26.0769 43.1909 27.2033 43.8772 28.1434 43.8772C29.0653 43.8772 29.919 43.2311 30.7634 42.5106C30.8321 42.452 30.9994 42.332 31.1216 42.5811C31.1236 42.5851 38.5001 55.2647 38.5001 55.2647C39.0086 56.1388 39.8646 56.1536 40.4023 55.297L43.0341 51.104C43.572 50.2479 44.8382 49.5108 45.8487 49.4667L50.7943 49.2512C51.8043 49.2069 52.2149 48.4555 51.7064 47.5815ZM36.1964 36.1132C30.7277 39.2947 24.1636 38.9538 19.1498 35.7913C11.8033 31.0856 9.386 21.3511 13.8024 13.7285C18.2692 6.01799 28.0883 3.29729 35.8683 7.53451C35.9091 7.55676 35.9495 7.57976 35.9901 7.60246C36.0478 7.6344 36.1053 7.66678 36.1626 7.69947C38.5628 9.08328 40.6441 11.0916 42.1344 13.6533C46.6893 21.4828 44.0257 31.5583 36.1964 36.1132Z" fill="white"/>
<path id="Vector_2" d="M34.9457 10.0035C34.923 9.99029 34.9 9.97804 34.8773 9.96502C30.7213 7.5597 25.4243 7.38385 20.9849 9.96669C14.397 13.7994 12.1552 22.277 15.988 28.8648C17.1575 30.8751 18.7601 32.4799 20.6091 33.6315C20.7664 33.7311 20.9254 33.829 21.0879 33.9232C27.683 37.7439 36.1561 35.4869 39.9767 28.8922C43.7971 22.2972 41.5407 13.8242 34.9457 10.0035ZM36.5955 20.7847L34.2863 23.0355C33.5711 23.7326 33.1241 25.1085 33.2931 26.0929L33.8382 29.2711C34.0071 30.2556 33.4221 30.6807 32.538 30.2159L29.6836 28.7153C28.7995 28.2505 27.3529 28.2505 26.4688 28.7153L23.6146 30.2159C22.7305 30.6807 22.1453 30.2556 22.3142 29.2711L22.8593 26.0929C23.0282 25.1085 22.5812 23.7326 21.866 23.0355L19.5569 20.7847C18.8415 20.0877 19.0652 19.3997 20.0536 19.2559L23.2446 18.7922C24.233 18.6486 25.4034 17.7983 25.8455 16.9027L27.2726 14.0111C27.7146 13.1155 28.438 13.1155 28.8799 14.0111L30.3071 16.9027C30.7492 17.7983 31.9194 18.6486 32.908 18.7922L36.099 19.2559C37.0872 19.3997 37.3108 20.0877 36.5955 20.7847Z" fill="white"/>
</g>
</g>
</g>
</g>
</svg>
