<svg width="56" height="56" viewBox="0 0 56 56" fill="none" xmlns="http://www.w3.org/2000/svg">
<g id="Happy Clients" clip-path="url(#clip0_225_742)">
<g id="Happy Clients_2">
<g id="emoji_star">
<path id="Path 485" d="M30.9938 55.5807C25.2791 56.2048 19.5117 55.0396 14.4875 52.2459C9.46327 49.4522 5.43014 45.1679 2.94478 39.9842C0.459419 34.8006 -0.355615 28.9733 0.612181 23.3067C1.57998 17.6401 4.28288 12.4136 8.34779 8.34871C12.4127 4.28379 17.6392 1.58089 23.3058 0.613096C28.9724 -0.3547 34.7997 0.460335 39.9833 2.9457C45.167 5.43106 49.4513 9.46419 52.245 14.4884C55.0386 19.5126 56.2039 25.2801 55.5798 30.9947C54.8935 37.2798 52.0826 43.1423 47.612 47.6129C43.1414 52.0835 37.2789 54.8944 30.9938 55.5807ZM30.0578 2.61775C24.8648 2.192 19.6662 3.37052 15.1644 5.9941C10.6626 8.61767 7.07459 12.5599 4.88515 17.288C2.69571 22.0162 2.01035 27.3025 2.92165 32.4326C3.83296 37.5628 6.29702 42.2896 9.98092 45.9745C13.6648 49.6593 18.391 52.1246 23.5209 53.0372C28.6509 53.9499 33.9373 53.2659 38.6661 51.0776C43.3948 48.8894 47.3379 45.3024 49.9626 40.8013C52.5874 36.3002 53.7672 31.1019 53.3428 25.9087C52.8515 19.8967 50.2406 14.2547 45.9759 9.98881C41.7111 5.72294 36.0697 3.11063 30.0578 2.61775Z" fill="white"/>
<path id="Path 486" d="M32.5258 22.8208C32.3078 22.8208 32.1578 22.6208 32.1258 22.2798C31.9038 20.0938 33.7458 18.2998 35.5868 17.7238C36.1364 17.5479 36.7098 17.4576 37.2868 17.4558C37.8556 17.4576 38.4206 17.5473 38.9618 17.7218C40.9178 18.3438 42.7468 20.1478 42.4618 22.3888C42.4475 22.5077 42.3898 22.617 42.2997 22.6959C42.2096 22.7747 42.0935 22.8174 41.9738 22.8158C41.8628 22.8186 41.755 22.7777 41.6738 22.7018C41.5248 22.5204 41.4219 22.3056 41.3738 22.0758C41.2801 21.6192 41.0235 21.2122 40.6518 20.9308C39.6735 20.2535 38.5157 19.8827 37.3258 19.8658C36.4126 19.8785 35.513 20.0901 34.6898 20.4858C34.3217 20.648 33.9924 20.8869 33.724 21.1866C33.4556 21.4864 33.2544 21.84 33.1338 22.2238C32.9978 22.6358 32.7338 22.8238 32.5228 22.8238" fill="white"/>
<path id="Path 487" d="M23.3428 22.8287C23.1963 22.8135 23.0614 22.7417 22.9668 22.6287C22.5668 20.9147 21.0078 19.9057 18.7668 19.9057C17.902 19.899 17.0443 20.0642 16.2438 20.3917C15.8288 20.5511 15.4564 20.8047 15.156 21.1325C14.8556 21.4603 14.6355 21.8534 14.5129 22.2807C14.4941 22.4235 14.4252 22.555 14.3184 22.6516C14.2115 22.7481 14.0738 22.8035 13.9299 22.8077C13.8788 22.8092 13.8279 22.8006 13.7801 22.7824C13.7324 22.7642 13.6887 22.7367 13.6515 22.7016C13.6144 22.6665 13.5845 22.6244 13.5636 22.5778C13.5428 22.5311 13.5313 22.4808 13.5299 22.4297C13.4532 21.8742 13.4995 21.3085 13.6656 20.7728C13.8316 20.2372 14.1134 19.7445 14.4908 19.3297C15.0154 18.7525 15.6529 18.289 16.3638 17.968C17.0747 17.6471 17.8439 17.4754 18.6239 17.4637C19.6053 17.4525 20.5716 17.7068 21.4205 18.1997C22.2693 18.6926 22.9691 19.4057 23.4458 20.2637C23.7788 20.8517 24.1639 22.4027 23.5459 22.7637C23.4857 22.8012 23.4167 22.8222 23.3459 22.8247" fill="white"/>
<path id="Path 488" d="M27.9548 46.4508C24.2285 46.4456 20.626 45.1125 17.7938 42.6909C16.0059 41.1463 14.5664 39.2396 13.5708 37.0969C13.0849 36.2826 12.8963 35.325 13.0371 34.3873C13.1778 33.4495 13.6393 32.5896 14.3428 31.9538C15.3297 31.1348 16.6005 30.7393 17.8778 30.8539C22.0585 30.8345 26.2385 30.8245 30.4178 30.8239C33.1832 30.8239 35.9478 30.8282 38.7118 30.8368C39.2932 30.8367 39.8687 30.9525 40.4048 31.1775C40.9408 31.4024 41.4267 31.7319 41.8338 32.1469C42.2064 32.5269 42.4983 32.9784 42.6918 33.4742C42.8853 33.97 42.9765 34.4999 42.9598 35.0318C42.8376 36.1668 42.4594 37.2592 41.8538 38.2269C40.4825 40.7145 38.4702 42.7897 36.0259 44.2369C33.5816 45.6841 30.7944 46.4506 27.9538 46.4569M27.8758 39.2419C26.733 39.2265 25.6012 39.4668 24.5631 39.945C23.525 40.4232 22.6069 41.1273 21.8758 42.0058C21.798 42.0991 21.7602 42.2194 21.7707 42.3404C21.7812 42.4614 21.8391 42.5734 21.9318 42.6519L22.0258 42.7128C23.8788 43.6172 25.9134 44.0877 27.9753 44.0886C30.0371 44.0894 32.0721 43.6207 33.9258 42.7179C34.0276 42.6703 34.1065 42.5844 34.1452 42.479C34.184 42.3735 34.1796 42.257 34.1328 42.1549C33.8811 41.7563 33.5644 41.4028 33.1958 41.1089C31.6791 39.9053 29.8011 39.248 27.8648 39.2429M27.9938 36.9049C29.5474 36.9086 31.0803 37.261 32.4796 37.936C33.8789 38.611 35.1088 39.5913 36.0788 40.8049C36.12 40.8591 36.173 40.9031 36.2339 40.9337C36.2947 40.9642 36.3618 40.9803 36.4298 40.9809H36.5298L36.7228 40.8699C37.5738 40.1599 41.2618 36.1849 40.5568 34.2289C40.2978 33.5109 39.5568 33.1448 38.3618 33.1428C35.7218 33.1348 33.0815 33.1309 30.4408 33.1309C26.1075 33.1309 21.7768 33.1415 17.4488 33.1628C17.1066 33.1284 16.7613 33.1841 16.4473 33.3245C16.1333 33.4648 15.8615 33.6849 15.6588 33.9629C15.4821 34.2976 15.3921 34.6714 15.397 35.0499C15.4019 35.4285 15.5015 35.7997 15.6868 36.1299C16.4942 37.9584 17.7088 39.5783 19.2378 40.8658L19.3118 40.9279L19.5258 40.9768C19.5948 40.9775 19.6629 40.9621 19.7248 40.9319C19.7868 40.9017 19.8409 40.8575 19.8828 40.8029C20.8597 39.5907 22.0947 38.6117 23.4979 37.9374C24.9011 37.2631 26.4371 36.9103 27.9938 36.9049Z" fill="white"/>
</g>
</g>
</g>
<defs>
<clipPath id="clip0_225_742">
<rect width="56" height="56" fill="white"/>
</clipPath>
</defs>
</svg>
