<svg width="248" height="40" viewBox="0 0 248 40" fill="none" xmlns="http://www.w3.org/2000/svg">
<g id="Logo" clip-path="url(#clip0_34_14)">
<path id="Path 1" d="M171.624 3.80199L170.675 8.75299H164.875V8.75899H157.789V8.75299H149.006C148.996 8.66299 148.984 8.57299 148.971 8.48199C148.824 7.49245 148.447 6.55108 147.871 5.73299C147.257 4.89733 146.44 4.23204 145.497 3.79999L171.624 3.80199Z" fill="white"/>
<path id="Path 2" d="M156.805 10.556L153.426 28.156H160.509L163.887 10.556H156.805Z" fill="white"/>
<path id="Path 3" d="M96.556 18.897L93.873 3.80298H86.608L91.795 28.165L96.556 18.897Z" fill="white"/>
<path id="Path 4" d="M112.101 16.986L109.25 3.80298H104.291L91.79 28.149V28.165H97.662L104.795 13.988L107.563 25.813L112.101 16.986Z" fill="white"/>
<path id="Path 5" d="M120.729 3.80298L108.214 28.165H113.955L126.92 3.80298H120.729Z" fill="white"/>
<path id="Path 6" d="M139.928 18.676C140.326 18.5825 140.718 18.465 141.102 18.324C142.227 17.922 143.265 17.3076 144.159 16.514C145.642 15.1878 146.65 13.4134 147.031 11.461C147.206 10.5753 147.229 9.66637 147.099 8.773C146.967 7.89364 146.63 7.05757 146.116 6.332C145.51 5.51967 144.694 4.88828 143.755 4.506C142.524 4.00363 141.202 3.76516 139.873 3.806H122.445L121.496 8.733H121.277L127.168 8.738H135.03V8.756H135.762C137.472 8.756 138.671 8.688 139.251 9.119C139.831 9.55 140.01 10.34 139.787 11.5C139.694 12.149 139.43 12.7616 139.022 13.275C138.612 13.7123 138.073 14.0076 137.484 14.118C136.575 14.2932 135.649 14.3699 134.723 14.347H133.194L133.922 10.559H126.822L123.443 28.159H130.543L132.297 19.023H133.633L137.069 28.159H143.836L139.928 18.676Z" fill="white"/>
<path id="Path 7" d="M195.135 24.56C194.752 24.7719 194.323 24.8882 193.885 24.899C193.693 24.9053 193.501 24.8681 193.325 24.7902C193.149 24.7123 192.992 24.5957 192.867 24.449C192.732 24.2644 192.641 24.051 192.602 23.8255C192.562 23.6 192.576 23.3684 192.641 23.149C192.714 22.7611 192.869 22.3931 193.095 22.0697C193.321 21.7462 193.614 21.4746 193.953 21.273C194.598 20.8826 195.271 20.541 195.966 20.251L196.492 17.509L196.092 17.637C195.651 17.7763 195.002 17.9796 194.145 18.247C192.892 18.6198 191.663 19.0713 190.466 19.599C189.572 19.9974 188.764 20.5667 188.088 21.275C187.426 21.9997 186.987 22.9 186.824 23.868C186.691 24.5337 186.711 25.2211 186.882 25.878C187.073 26.5553 187.515 27.1341 188.119 27.496C188.962 27.9717 189.925 28.1945 190.891 28.138C191.989 28.1354 193.071 27.8748 194.049 27.377C194.268 27.2612 194.476 27.1274 194.672 26.977L195.135 24.56Z" fill="white"/>
<path id="Path 8" d="M202.938 24.315C202.844 24.3185 202.75 24.3001 202.664 24.2611C202.579 24.2221 202.503 24.1636 202.444 24.0903C202.385 24.017 202.343 23.9309 202.323 23.8389C202.303 23.7468 202.305 23.6513 202.328 23.56L203.795 15.915C203.989 15.2267 203.995 14.499 203.811 13.8078C203.628 13.1166 203.262 12.4875 202.752 11.986C201.77 11.067 200.364 10.594 197.007 10.562V10.557H191.713L190.974 14.403H196.12C196.939 14.46 197.469 14.678 197.669 15.081C197.913 15.6972 197.953 16.3757 197.781 17.016H197.776L197.257 19.716H197.262L196.488 23.735H196.482L196.097 25.735C196.015 26.0083 195.997 26.2967 196.044 26.578C196.091 26.8594 196.202 27.1262 196.368 27.358C196.535 27.5897 196.752 27.7803 197.003 27.915C197.255 28.0497 197.534 28.125 197.819 28.135H198.778H199.755H205.846L206.58 24.308L202.938 24.315Z" fill="white"/>
<path id="Path 9" d="M237.094 16.645C236.986 15.5386 236.633 14.4701 236.061 13.517C235.476 12.5685 234.633 11.8056 233.632 11.317C232.464 10.7725 231.185 10.5075 229.897 10.543C228.647 10.5393 227.407 10.7587 226.235 11.191C225.19 11.5856 224.218 12.1484 223.355 12.857C222.817 12.212 222.15 11.687 221.397 11.316C220.229 10.7714 218.949 10.5064 217.661 10.542C216.411 10.5384 215.171 10.7578 213.999 11.19C212.791 11.6431 211.678 12.3188 210.719 13.182C209.733 14.0627 208.907 15.1079 208.278 16.271C207.624 17.4575 207.163 18.7401 206.912 20.071C206.886 20.207 206.861 20.348 206.844 20.451L205.366 28.151H210.914L212.549 19.635C212.715 18.7212 213.2 17.8959 213.918 17.3057C214.635 16.7155 215.538 16.3985 216.467 16.411C216.858 16.3793 217.25 16.4364 217.616 16.5779C217.981 16.7194 218.31 16.9418 218.578 17.2283C218.845 17.5148 219.044 17.858 219.16 18.2324C219.276 18.6067 219.306 19.0024 219.248 19.39L217.565 28.151H223.165L224.68 20.259C224.728 20.011 224.767 19.78 224.799 19.559C224.976 18.6594 225.463 17.8506 226.176 17.2741C226.889 16.6977 227.782 16.3904 228.699 16.406C229.09 16.3743 229.482 16.4314 229.848 16.5729C230.213 16.7144 230.542 16.9368 230.81 17.2233C231.077 17.5098 231.276 17.853 231.392 18.2274C231.508 18.6017 231.538 18.9974 231.48 19.385L229.798 28.146H235.398L236.89 20.388C237.164 19.1602 237.233 17.8954 237.094 16.645Z" fill="white"/>
<path id="Path 10" d="M167.674 20.908H173.72H185.27L185.503 19.695C185.939 17.9507 185.869 16.1184 185.303 14.412C184.848 13.1527 183.947 12.1042 182.77 11.465C181.62 10.862 180.338 10.5529 179.04 10.565C177.166 10.5286 175.309 10.9174 173.607 11.702C172.09 12.4092 170.776 13.4874 169.786 14.837C168.817 16.1852 168.156 17.73 167.85 19.362C167.753 19.7986 167.694 20.2425 167.672 20.689C167.669 20.763 167.674 20.831 167.674 20.908ZM175.405 15.283C176.098 14.631 177.016 14.2727 177.968 14.283C178.372 14.2435 178.779 14.3143 179.146 14.4879C179.513 14.6616 179.826 14.9315 180.052 15.269C180.474 16.0814 180.575 17.0225 180.336 17.906H173.997C174.164 16.9015 174.658 15.9804 175.403 15.286L175.405 15.283Z" fill="white"/>
<path id="Path 11" d="M174.029 22.216H167.696C167.724 22.467 167.749 22.716 167.796 22.962C168.002 23.9907 168.476 24.9467 169.17 25.734C169.89 26.5356 170.796 27.1471 171.809 27.514C172.963 27.9483 174.188 28.1604 175.421 28.139C175.557 28.139 175.692 28.139 175.821 28.133H178.403L179.253 23.706H176.676C176.145 23.7014 175.624 23.5623 175.161 23.3018C174.698 23.0412 174.309 22.6677 174.029 22.216Z" fill="white"/>
<path id="Path 12" d="M73.867 0L63.767 34.492C63.6336 34.9013 63.5043 35.2893 63.379 35.656C62.479 38.356 61.913 39.865 60.518 39.999H45.307L51.438 19.056L52.033 17.026L57.017 0H73.867Z" fill="url(#paint0_linear_34_14)"/>
<path id="Path 13" d="M63.382 35.592C62.482 38.33 61.9161 39.864 60.5211 40H58.364L57.179 38.957L51.434 18.741L51.411 18.658L52.0291 16.681L52.084 16.861C52.136 17.0323 52.1884 17.2033 52.241 17.374C52.323 17.6406 52.4057 17.9073 52.489 18.174C52.5983 18.5246 52.7081 18.8753 52.8181 19.226C52.9514 19.6453 53.0847 20.065 53.218 20.485C53.3694 20.9603 53.5213 21.435 53.674 21.909C53.8407 22.425 54.0073 22.941 54.174 23.457C54.3527 23.9997 54.5337 24.5423 54.717 25.085C54.9037 25.6423 55.0917 26.199 55.2811 26.755C55.4704 27.311 55.663 27.8676 55.859 28.425C56.0503 28.9676 56.2441 29.5103 56.4401 30.053C56.6274 30.5683 56.8187 31.082 57.014 31.594C57.1947 32.0673 57.379 32.5393 57.567 33.01C57.7364 33.428 57.9107 33.8436 58.09 34.257C58.244 34.606 58.4031 34.957 58.5731 35.294C58.7534 35.719 58.9994 36.1132 59.3021 36.462C59.5927 36.7556 59.9623 36.9585 60.366 37.046C60.5862 37.0896 60.8124 37.094 61.0341 37.059C61.3496 37.0075 61.654 36.9023 61.934 36.748C62.4746 36.4413 62.9632 36.0512 63.382 35.592Z" fill="url(#paint1_linear_34_14)"/>
<path id="Path 14" d="M65.358 29.506L73.866 0H57.184C57.758 9.466 60.467 20.972 65.358 29.506Z" fill="url(#paint2_linear_34_14)"/>
<path id="Path 15" d="M60.468 40H43.6159C41.9949 39.849 41.4379 37.842 40.2879 34.255C40.2579 34.162 38.6999 28.87 36.9339 22.869L35.873 19.269C33.873 12.469 31.941 5.901 31.89 5.751C30.736 2.157 30.1819 0.151 28.5599 0H45.36C46.581 0.113 47.1959 1.274 47.9149 3.367C48.1529 4.058 48.402 4.851 48.687 5.743C48.787 6.054 57.039 33.943 57.14 34.251C58.289 37.841 58.846 39.848 60.468 40Z" fill="url(#paint3_linear_34_14)"/>
<path id="Path 16" d="M46.725 33.042C45.081 27.066 40.611 20.369 36.281 20.369C38.296 27.319 40.251 34.062 40.281 34.169C41.434 37.811 41.989 39.847 43.61 40.001H51.226C49.393 39.319 47.538 35.995 46.725 33.042Z" fill="url(#paint4_linear_34_14)"/>
<path id="Path 17" d="M47.913 3.419C47.8929 3.37437 47.8702 3.33097 47.845 3.289C47.6174 2.9114 47.2841 2.60884 46.8863 2.41883C46.4885 2.22881 46.0436 2.15968 45.6069 2.22C45.187 2.24997 44.7899 2.42209 44.481 2.708C44.1979 3.00713 43.9658 3.3507 43.7939 3.725L43.7499 3.81C43.2699 4.742 42.85 5.702 42.45 6.674C42.05 7.646 41.693 8.64 41.332 9.63C40.632 11.555 39.976 13.495 39.345 15.443C38.7983 17.1223 38.267 18.807 37.751 20.497C37.4843 21.371 37.2203 22.247 36.959 23.125L36.933 23.213L35.577 24.538C35.513 24.538 35.7209 21.573 35.8699 19.555C35.9469 18.513 36.006 17.724 36.006 17.724L39.6539 5.832L42.424 1.332L43.595 0H45.358C46.577 0.115 47.194 1.294 47.913 3.419Z" fill="url(#paint5_linear_34_14)"/>
<path id="Path 18" d="M28.56 40H13.346C11.971 39.872 11.4 38.4 10.523 35.772C10.3897 35.372 10.2477 34.946 10.097 34.494L0 0H16.851L21.8 16.9L21.945 17.4L28.56 40Z" fill="url(#paint6_linear_34_14)"/>
<path id="Path 19" d="M22.379 18.658L22.356 18.741L16.611 38.958L15.426 40.001H13.347C11.972 39.871 11.401 38.373 10.524 35.709C10.9148 36.1216 11.3655 36.4728 11.861 36.751C12.1411 36.9053 12.4455 37.0105 12.761 37.062C12.9831 37.0971 13.2095 37.0927 13.43 37.049C13.8335 36.9615 14.2028 36.7586 14.493 36.465C14.7959 36.1164 15.042 35.7223 15.222 35.297C15.392 34.958 15.551 34.609 15.705 34.26C15.8857 33.8467 16.0604 33.431 16.229 33.013C16.419 32.543 16.6037 32.071 16.783 31.597C16.9784 31.085 17.1694 30.5713 17.356 30.056C17.556 29.5133 17.7497 28.9707 17.937 28.428C18.137 27.872 21.817 16.752 21.837 16.679L21.946 17.057L22.379 18.658Z" fill="url(#paint7_linear_34_14)"/>
<path id="Path 20" d="M9.481 32.873C10.4712 23.1225 13.4905 13.687 18.345 5.173L16.851 0H0L9.481 32.873Z" fill="url(#paint8_linear_34_14)"/>
<path id="Path 21" d="M41.978 5.745C41.878 6.056 33.649 34.045 33.578 34.254C32.425 37.842 31.871 39.848 30.249 39.999H13.4C15.021 39.848 15.578 37.842 16.729 34.254C16.829 33.943 25.081 6.054 25.181 5.745C26.334 2.159 26.888 0.152 28.51 0H45.31C43.686 0.151 43.131 2.158 41.978 5.745Z" fill="url(#paint9_linear_34_14)"/>
<path id="Path 22" d="M21.41 40C23.478 36.14 25.149 32.1 27.055 28.151C29.2229 23.6921 31.8767 19.4863 34.968 15.61C36.858 13.2648 38.8856 11.0338 41.04 8.929C41.6 7.029 41.96 5.809 41.981 5.746C43.131 2.158 43.686 0.151 45.31 0H28.51C26.888 0.151 26.332 2.158 25.181 5.745C25.081 6.056 16.829 33.945 16.729 34.254C15.576 37.842 15.021 39.848 13.4 39.999L21.41 40Z" fill="url(#paint10_linear_34_14)"/>
<path id="Path 24" d="M93.909 35.179L95.578 32.058H96.007L94.107 35.558V37.758H93.697V35.585L91.791 32.058H92.247L93.909 35.179ZM105.443 34.902C105.486 35.6765 105.244 36.4399 104.764 37.049C104.532 37.3131 104.242 37.5212 103.918 37.658C103.594 37.7948 103.243 37.8567 102.892 37.839C102.541 37.8564 102.191 37.7944 101.868 37.6576C101.544 37.5209 101.256 37.3128 101.024 37.049C100.543 36.4372 100.302 35.671 100.345 34.894C100.301 34.1196 100.545 33.3564 101.03 32.751C101.264 32.4898 101.553 32.284 101.877 32.1487C102.2 32.0135 102.55 31.9521 102.9 31.969C103.25 31.951 103.6 32.0123 103.924 32.1484C104.247 32.2845 104.536 32.4919 104.768 32.755C105.247 33.3648 105.487 34.1281 105.443 34.902ZM100.778 34.902C100.735 35.5776 100.928 36.247 101.324 36.796C101.516 37.0215 101.757 37.1993 102.029 37.3154C102.301 37.4315 102.597 37.4827 102.892 37.465C103.188 37.4835 103.484 37.4333 103.757 37.3183C104.03 37.2033 104.273 37.0266 104.466 36.802C104.862 36.251 105.055 35.5793 105.01 34.902C105.055 34.2278 104.863 33.5592 104.466 33.012C104.273 32.7896 104.031 32.6147 103.76 32.5008C103.488 32.3868 103.194 32.337 102.9 32.355C102.605 32.3378 102.31 32.3887 102.038 32.5036C101.766 32.6186 101.523 32.7946 101.33 33.018C100.93 33.5615 100.735 34.2286 100.778 34.902ZM114.778 32.058V35.748C114.794 36.0297 114.752 36.3116 114.654 36.5761C114.556 36.8407 114.404 37.082 114.208 37.285C113.993 37.4779 113.742 37.6262 113.47 37.7213C113.197 37.8164 112.908 37.8564 112.62 37.839C112.338 37.8557 112.055 37.8151 111.79 37.7195C111.524 37.6239 111.28 37.4755 111.073 37.283C110.881 37.0753 110.732 36.8309 110.637 36.5643C110.541 36.2978 110.5 36.0147 110.517 35.732V32.058H110.917V35.748C110.903 35.9812 110.936 36.2149 111.014 36.435C111.093 36.6551 111.215 36.8572 111.373 37.029C111.546 37.1886 111.75 37.3115 111.972 37.3903C112.193 37.469 112.429 37.5019 112.664 37.487C112.894 37.5016 113.125 37.4691 113.342 37.3915C113.56 37.314 113.759 37.193 113.928 37.036C114.083 36.8687 114.203 36.6717 114.28 36.4569C114.357 36.2421 114.39 36.0139 114.377 35.786V32.057L114.778 32.058ZM120.563 35.276V37.761H120.163V32.061H121.52C122.071 32.0187 122.621 32.1563 123.088 32.453C123.261 32.595 123.397 32.7762 123.485 32.9815C123.573 33.1867 123.611 33.4102 123.595 33.633C123.607 33.9799 123.501 34.3206 123.295 34.6C123.059 34.8846 122.736 35.0836 122.376 35.166L123.925 37.766H123.449L121.978 35.281L120.563 35.276ZM120.563 34.933H121.651C122.05 34.9579 122.446 34.8441 122.771 34.611C122.907 34.4948 123.014 34.3483 123.084 34.1834C123.153 34.0185 123.183 33.8396 123.171 33.661C123.187 33.4833 123.159 33.3045 123.092 33.1395C123.024 32.9745 122.917 32.8283 122.781 32.713C122.399 32.4821 121.954 32.3772 121.509 32.413H120.565L120.563 34.933ZM139.2 37.761H138.872L137.62 33.361C137.516 32.9997 137.438 32.7034 137.386 32.472C137.345 32.698 137.286 32.958 137.209 33.252C137.132 33.546 136.713 35.049 135.951 37.761H135.616L134.048 32.061H134.465L135.465 35.735C135.504 35.883 135.541 36.0204 135.574 36.147C135.607 36.2737 135.638 36.392 135.666 36.502C135.693 36.6127 135.718 36.7194 135.74 36.822C135.762 36.9247 135.782 37.028 135.8 37.132C135.863 36.7787 135.996 36.2417 136.2 35.521L137.175 32.061H137.616L138.759 36.032C138.892 36.49 138.987 36.8594 139.044 37.14C139.078 36.9527 139.122 36.7527 139.175 36.54C139.228 36.3274 139.628 34.8334 140.375 32.058H140.775L139.2 37.761ZM150.41 34.902C150.453 35.6765 150.211 36.4399 149.731 37.049C149.499 37.3131 149.209 37.5212 148.885 37.658C148.561 37.7948 148.21 37.8567 147.859 37.839C147.508 37.8564 147.158 37.7944 146.835 37.6576C146.511 37.5209 146.223 37.3128 145.991 37.049C145.51 36.4372 145.269 35.671 145.312 34.894C145.268 34.1196 145.512 33.3564 145.997 32.751C146.231 32.4898 146.52 32.284 146.844 32.1487C147.167 32.0135 147.517 31.9521 147.867 31.969C148.217 31.951 148.567 32.0123 148.891 32.1484C149.214 32.2845 149.503 32.4919 149.735 32.755C150.215 33.3643 150.456 34.1276 150.414 34.902H150.41ZM145.745 34.902C145.702 35.5776 145.895 36.247 146.291 36.796C146.483 37.0215 146.724 37.1993 146.996 37.3154C147.268 37.4315 147.564 37.4827 147.859 37.465C148.155 37.4835 148.451 37.4333 148.724 37.3183C148.997 37.2033 149.24 37.0266 149.433 36.802C149.829 36.251 150.022 35.5793 149.977 34.902C150.022 34.2278 149.829 33.5592 149.433 33.012C149.24 32.7896 148.998 32.6146 148.727 32.5007C148.455 32.3867 148.161 32.3369 147.867 32.355C147.572 32.3378 147.277 32.3887 147.005 32.5036C146.733 32.6186 146.49 32.7946 146.297 33.018C145.899 33.5621 145.705 34.2291 145.749 34.902H145.745ZM155.953 35.276V37.761H155.553V32.061H156.91C157.461 32.0187 158.011 32.1563 158.478 32.453C158.651 32.595 158.787 32.7762 158.875 32.9815C158.963 33.1867 159.001 33.4102 158.985 33.633C158.997 33.9799 158.891 34.3206 158.685 34.6C158.449 34.8846 158.126 35.0835 157.766 35.166L159.315 37.766H158.839L157.368 35.281L155.953 35.276ZM155.953 34.933H157.041C157.44 34.9576 157.835 34.8439 158.16 34.611C158.296 34.4948 158.403 34.3483 158.473 34.1834C158.542 34.0185 158.572 33.8396 158.56 33.661C158.576 33.4833 158.548 33.3045 158.481 33.1395C158.413 32.9745 158.306 32.8283 158.17 32.713C157.788 32.4821 157.343 32.3772 156.898 32.413H155.954L155.953 34.933ZM167.971 37.761H167.491L165.303 34.75L164.542 35.421V37.761H164.142V32.061H164.542V35.026L165.174 34.394L167.409 32.061H167.916L165.579 34.472L167.971 37.761ZM181.955 33.696C181.969 33.9368 181.925 34.1775 181.828 34.3981C181.73 34.6186 181.581 34.8126 181.393 34.964C180.927 35.2852 180.367 35.4405 179.802 35.405H178.92V37.761H178.52V32.061H179.92C181.279 32.059 181.958 32.6044 181.958 33.697L181.955 33.696ZM178.92 35.061H179.704C180.19 35.1005 180.676 34.9894 181.097 34.743C181.247 34.6187 181.364 34.4598 181.439 34.28C181.514 34.1002 181.544 33.9049 181.526 33.711C181.54 33.5277 181.511 33.3436 181.44 33.1738C181.37 33.004 181.26 32.8533 181.12 32.734C180.747 32.4935 180.306 32.3818 179.864 32.416H178.92V35.061ZM189.776 35.748H187.462L186.662 37.761H186.221L188.515 32.035H188.769L191.016 37.761H190.571L189.776 35.748ZM187.606 35.385H189.646L188.87 33.329C188.803 33.1677 188.725 32.944 188.636 32.658C188.572 32.8886 188.496 33.1153 188.406 33.337L187.606 35.385ZM196.059 35.272V37.757H195.659V32.057H197.016C197.567 32.0147 198.117 32.1523 198.584 32.449C198.757 32.591 198.893 32.7722 198.981 32.9775C199.069 33.1827 199.107 33.4062 199.091 33.629C199.103 33.9759 198.997 34.3166 198.791 34.596C198.555 34.8806 198.232 35.0796 197.872 35.162L199.421 37.762H198.945L197.474 35.277L196.059 35.272ZM196.059 34.929H197.147C197.546 34.9536 197.941 34.8399 198.266 34.607C198.402 34.4908 198.509 34.3443 198.579 34.1794C198.648 34.0145 198.678 33.8356 198.666 33.657C198.682 33.4793 198.654 33.3005 198.587 33.1355C198.519 32.9705 198.412 32.8243 198.276 32.709C197.894 32.4781 197.449 32.3732 197.004 32.409H196.06L196.059 34.929ZM205.729 37.757H205.329V32.429H203.476V32.055H207.583V32.429H205.73L205.729 37.757ZM216.409 37.757H216.009L212.631 32.694H212.6C212.631 33.294 212.647 33.749 212.647 34.059V37.759H212.265V32.059H212.665L216.039 37.114H216.062C216.039 36.6474 216.027 36.2027 216.027 35.78V32.059H216.413L216.409 37.757ZM224.975 37.757H221.858V32.057H224.975V32.424H222.256V34.585H224.823V34.952H222.256V37.398H224.975V37.757ZM230.498 35.272V37.757H230.098V32.057H231.455C232.006 32.0147 232.556 32.1523 233.023 32.449C233.196 32.591 233.332 32.7722 233.42 32.9775C233.508 33.1827 233.546 33.4062 233.53 33.629C233.542 33.9759 233.436 34.3166 233.23 34.596C232.994 34.8806 232.671 35.0796 232.311 35.162L233.86 37.762H233.384L231.913 35.277L230.498 35.272ZM230.498 34.929H231.591C231.99 34.9539 232.386 34.8401 232.711 34.607C232.847 34.4907 232.954 34.3443 233.023 34.1794C233.093 34.0144 233.123 33.8356 233.111 33.657C233.127 33.4793 233.099 33.3005 233.032 33.1355C232.964 32.9705 232.857 32.8243 232.721 32.709C232.339 32.4781 231.894 32.3732 231.449 32.409H230.505L230.498 34.929Z" fill="white"/>
<path id="Path 23" d="M247.275 7.95699C247.273 7.25598 246.994 6.58413 246.499 6.08844C246.003 5.59275 245.331 5.31357 244.63 5.31198C243.929 5.31383 243.257 5.5931 242.762 6.08873C242.266 6.58436 241.987 7.25606 241.985 7.95699C241.985 8.65848 242.264 9.33125 242.76 9.82728C243.256 10.3233 243.928 10.602 244.63 10.602C244.977 10.6022 245.322 10.5337 245.643 10.4006C245.964 10.2674 246.256 10.0721 246.501 9.82598C246.579 9.74787 246.653 9.66505 246.721 9.57798C247.082 9.11404 247.278 8.54283 247.277 7.95499L247.275 7.95699ZM243.448 9.31298V6.51299H244.887C245.093 6.50516 245.299 6.52808 245.498 6.58099C245.636 6.62529 245.756 6.71473 245.837 6.83499C245.926 6.9685 245.971 7.12655 245.966 7.28699C245.972 7.4232 245.94 7.55842 245.875 7.67795C245.809 7.79748 245.712 7.89676 245.594 7.96498C245.5 8.01661 245.399 8.05338 245.294 8.07398C245.374 8.09652 245.45 8.13018 245.52 8.17398C245.571 8.21755 245.616 8.26651 245.656 8.31999C245.702 8.37419 245.742 8.43242 245.777 8.49398L246.195 9.30399H245.218L244.757 8.44998C244.72 8.36807 244.666 8.29458 244.6 8.23399C244.538 8.18981 244.465 8.16603 244.389 8.16599H244.313V9.29998H243.452L243.448 9.31298ZM244.316 7.64999H244.68C244.757 7.64431 244.834 7.63159 244.909 7.61199C244.965 7.60146 245.015 7.57043 245.049 7.52499C245.09 7.47009 245.109 7.40224 245.103 7.33414C245.098 7.26603 245.067 7.20234 245.018 7.15498C244.921 7.0959 244.808 7.07025 244.695 7.08199H244.316V7.64999ZM247.995 7.95699C247.995 8.84972 247.64 9.70582 247.009 10.3372C246.378 10.9685 245.522 11.3235 244.629 11.324C243.736 11.3237 242.881 10.969 242.25 10.3378C241.618 9.70654 241.264 8.85053 241.264 7.95799C241.264 7.51588 241.35 7.07807 241.52 6.66956C241.689 6.26106 241.937 5.88989 242.249 5.57728C242.562 5.26467 242.933 5.01674 243.342 4.84767C243.75 4.67861 244.188 4.59172 244.63 4.59198C245.072 4.59159 245.51 4.67831 245.918 4.84718C246.327 5.01605 246.698 5.26376 247.011 5.57616C247.324 5.88856 247.572 6.25953 247.741 6.66787C247.911 7.07621 247.998 7.51392 247.998 7.95599L247.995 7.95699Z" fill="white"/>
</g>
<defs>
<linearGradient id="paint0_linear_34_14" x1="45.307" y1="19.9995" x2="73.867" y2="19.9995" gradientUnits="userSpaceOnUse">
<stop stop-color="#6ABDBD"/>
<stop offset="1" stop-color="#117F7C"/>
</linearGradient>
<linearGradient id="paint1_linear_34_14" x1="51.411" y1="28.3405" x2="63.382" y2="28.3405" gradientUnits="userSpaceOnUse">
<stop stop-color="#579D9E"/>
<stop offset="1" stop-color="#00615E"/>
</linearGradient>
<linearGradient id="paint2_linear_34_14" x1="54.0311" y1="20.3001" x2="79.6191" y2="14.0336" gradientUnits="userSpaceOnUse">
<stop stop-color="#6ABDBD"/>
<stop offset="1" stop-color="#117F7C"/>
</linearGradient>
<linearGradient id="paint3_linear_34_14" x1="46.4922" y1="-4.96" x2="41.2564" y2="37.045" gradientUnits="userSpaceOnUse">
<stop stop-color="#FF0077"/>
<stop offset="1" stop-color="#C60264"/>
</linearGradient>
<linearGradient id="paint4_linear_34_14" x1="211.123" y1="-53.5258" x2="238.128" y2="-53.5258" gradientUnits="userSpaceOnUse">
<stop stop-color="#FF0077"/>
<stop offset="1" stop-color="#C60264"/>
</linearGradient>
<linearGradient id="paint5_linear_34_14" x1="35.5651" y1="12.269" x2="47.913" y2="12.269" gradientUnits="userSpaceOnUse">
<stop stop-color="#FF0077"/>
<stop offset="1" stop-color="#79003B"/>
</linearGradient>
<linearGradient id="paint6_linear_34_14" x1="0.2856" y1="-8.56" x2="17.8065" y2="9.26357" gradientUnits="userSpaceOnUse">
<stop stop-color="#A7C62A"/>
<stop offset="1" stop-color="#6F8200"/>
</linearGradient>
<linearGradient id="paint7_linear_34_14" x1="16.5227" y1="22.5095" x2="15.3327" y2="43.2154" gradientUnits="userSpaceOnUse">
<stop stop-color="#718B32"/>
<stop offset="1" stop-color="#3C4E1F"/>
</linearGradient>
<linearGradient id="paint8_linear_34_14" x1="7.81497" y1="-9.96052" x2="22.1138" y2="31.3993" gradientUnits="userSpaceOnUse">
<stop stop-color="#A7C62A"/>
<stop offset="1" stop-color="#6F8200"/>
</linearGradient>
<linearGradient id="paint9_linear_34_14" x1="26.3555" y1="-9.67976" x2="33.014" y2="32.2609" gradientUnits="userSpaceOnUse">
<stop stop-color="#FDA037"/>
<stop offset="1" stop-color="#C96400"/>
</linearGradient>
<linearGradient id="paint10_linear_34_14" x1="6.12454" y1="-0.28" x2="83.2091" y2="42.5262" gradientUnits="userSpaceOnUse">
<stop stop-color="#FDA037"/>
<stop offset="1" stop-color="#C96400"/>
</linearGradient>
<clipPath id="clip0_34_14">
<rect width="248.001" height="40" fill="white"/>
</clipPath>
</defs>
</svg>
