<svg width="56" height="56" viewBox="0 0 56 56" fill="none" xmlns="http://www.w3.org/2000/svg">
<g id="Money" clip-path="url(#clip0_225_980)">
<path id="Vector" d="M13.4167 22.1668H10.276C9.67171 24.0032 9.33337 25.9608 9.33337 28.0002C9.33337 38.3088 17.6914 46.6668 28 46.6668C38.3087 46.6668 46.6667 38.3088 46.6667 28.0002C46.6667 17.6915 38.3087 9.3335 28 9.3335C23.8467 9.3335 20.0247 10.7055 16.9237 12.9992L17.129 13.2045C18.634 14.7095 19.082 16.9495 18.2724 18.9165C17.451 20.8952 15.547 22.1668 13.4167 22.1668ZM28.5834 29.7502H25.0834C24.1174 29.7502 23.3334 28.9662 23.3334 28.0002V25.0835C23.3334 22.8318 25.165 21.0002 27.4167 21.0002H30.9167C31.8827 21.0002 32.6667 21.7842 32.6667 22.7502C32.6667 23.7162 31.8827 24.5002 30.9167 24.5002H27.4167C27.0947 24.5002 26.8334 24.7615 26.8334 25.0835V26.2502H28.5834C30.835 26.2502 32.6667 28.0818 32.6667 30.3335V30.9168C32.6667 33.1685 30.835 35.0002 28.5834 35.0002H25.0834C24.1174 35.0002 23.3334 34.2162 23.3334 33.2502C23.3334 32.2842 24.1174 31.5002 25.0834 31.5002H28.5834C28.9054 31.5002 29.1667 31.2388 29.1667 30.9168V30.3335C29.1667 30.0115 28.9054 29.7502 28.5834 29.7502Z" fill="white"/>
<path id="Vector_2" d="M28 0C20.3303 0 12.775 3.09633 7.217 8.24367L2.98667 4.01333C2.485 3.51167 1.736 3.36233 1.08033 3.633C0.427 3.90367 0 4.54067 0 5.25V16.9167C0 17.8827 0.784 18.6667 1.75 18.6667H13.4167C14.126 18.6667 14.763 18.2397 15.0337 17.5863C15.3043 16.933 15.155 16.1817 14.6533 15.68L10.521 11.5477C15.218 7.29633 21.6603 4.66667 28 4.66667C40.866 4.66667 51.3333 15.134 51.3333 28C51.3333 40.866 40.866 51.3333 28 51.3333C21.763 51.3333 15.9063 48.9043 11.5173 44.492C10.6073 43.5773 9.128 43.5703 8.218 44.4827C7.30333 45.3927 7.29867 46.8697 8.20867 47.782C13.482 53.0833 20.5123 56 28 56C43.4397 56 56 43.4397 56 28C56 12.5603 43.4397 0 28 0Z" fill="white"/>
</g>
<defs>
<clipPath id="clip0_225_980">
<rect width="56" height="56" fill="white"/>
</clipPath>
</defs>
</svg>
