<svg width="150" height="150" viewBox="0 0 150 150" fill="none" xmlns="http://www.w3.org/2000/svg">
<g id="Logo">
<g id="BG" filter="url(#filter0_b_225_873)">
<rect width="150" height="150" rx="75" fill="#EE2933"/>
</g>
<path id="Path 177" d="M44.0403 72.9502C41.7638 72.9502 39.4873 72.9502 37.2077 72.9502C36.6627 72.9706 36.1311 72.7788 35.7247 72.4151C35.3183 72.0514 35.0689 71.5441 35.0289 71.0002C34.9397 70.4561 35.0584 69.8982 35.3614 69.4375C35.6644 68.9768 36.1296 68.6468 36.6646 68.5132C36.7884 68.4817 36.9153 68.4642 37.043 68.4613C41.7089 68.4613 46.3748 68.4613 51.0437 68.4613C51.5324 68.4633 52.0038 68.6416 52.3716 68.9634C52.7394 69.2852 52.9786 69.7289 53.0455 70.2129C53.1624 70.7087 53.1086 71.2295 52.8926 71.6909C52.6765 72.1523 52.3111 72.5272 51.8554 72.7549C51.5154 72.8999 51.1477 72.9687 50.7782 72.9563H44.0434L44.0403 72.9502Z" fill="#F5F5F5"/>
<path id="Path 178" d="M59.9665 63.9511C58.9076 63.9511 57.8487 63.9816 56.7928 63.9511C56.5066 63.9518 56.2232 63.8943 55.9598 63.7821C55.6965 63.67 55.4586 63.5054 55.2609 63.2985C55.0631 63.0916 54.9094 62.8466 54.8092 62.5784C54.7091 62.3103 54.6644 62.0246 54.6781 61.7386C54.6582 61.4571 54.6951 61.1744 54.7864 60.9073C54.8777 60.6401 55.0216 60.394 55.2097 60.1835C55.3977 59.973 55.6261 59.8023 55.8812 59.6816C56.1364 59.5608 56.4131 59.4924 56.6952 59.4805C57.7632 59.4103 58.8313 59.45 59.9146 59.4439C60.9979 59.4378 61.9988 59.4225 63.0394 59.4439C63.4027 59.4312 63.7636 59.5076 64.0906 59.6664C64.4176 59.8253 64.7008 60.0618 64.9154 60.3552C65.13 60.6487 65.2695 60.9902 65.3217 61.3499C65.374 61.7097 65.3374 62.0768 65.2152 62.4192C65.1156 62.8371 64.8835 63.2115 64.5535 63.4865C64.2235 63.7616 63.8132 63.9224 63.3842 63.945C62.249 63.9877 61.1078 63.945 59.9726 63.945L59.9665 63.9511Z" fill="#F5F5F5"/>
<path id="Path 179" d="M112.451 64.9886C111.39 62.9769 110.047 61.1273 108.463 59.4957C105.701 56.6994 102.232 54.7059 98.4258 53.7282C95.5008 52.954 92.4469 52.795 89.4573 53.2613C87.47 53.5354 85.5363 54.1117 83.7232 54.9702C83.589 55.019 83.4517 55.0617 83.3235 55.1228C81.1679 56.1283 79.1924 57.482 77.4767 59.1295C77.379 59.2315 77.2608 59.3115 77.1298 59.3642C76.9987 59.4168 76.8579 59.4408 76.7168 59.4346C74.535 59.4346 72.3531 59.4346 70.1681 59.4346C69.7002 59.3863 69.2294 59.4922 68.8272 59.7363C68.4251 59.9803 68.1136 60.3491 67.9405 60.7865C67.776 61.1428 67.7078 61.5359 67.7426 61.9267C67.7773 62.3175 67.9139 62.6924 68.1386 63.014C68.3633 63.3357 68.6684 63.5928 69.0234 63.7599C69.3784 63.927 69.7709 63.9981 70.162 63.9663C72.762 63.9663 75.3498 63.9663 77.9619 63.9663C78.2782 63.9485 78.5943 64.0012 78.8876 64.1207C79.181 64.2401 79.4441 64.4234 79.6579 64.657C79.8717 64.8907 80.0309 65.1689 80.1239 65.4717C80.2169 65.7745 80.2414 66.0941 80.1957 66.4075C80.1849 66.6977 80.115 66.9827 79.9903 67.245C79.8657 67.5073 79.6888 67.7414 79.4706 67.9331C79.2524 68.1247 78.9974 68.2699 78.7212 68.3597C78.445 68.4494 78.1534 68.4819 77.8643 68.4552H58.8925C58.7003 68.4552 58.505 68.4552 58.3158 68.4552C57.9369 68.4778 57.572 68.6065 57.2628 68.8266C56.9536 69.0468 56.7126 69.3495 56.5672 69.7002C56.3938 70.0508 56.3146 70.4406 56.3374 70.8312C56.3602 71.2217 56.4841 71.5996 56.6972 71.9278C56.9102 72.2559 57.2049 72.523 57.5523 72.7028C57.8998 72.8826 58.2881 72.9688 58.679 72.9532C62.4202 72.9288 66.1584 72.9532 69.8966 72.9532C70.0888 72.9532 70.2811 72.9532 70.4733 72.9684C70.992 73.001 71.4804 73.2239 71.8448 73.5945C72.2092 73.9651 72.4239 74.4572 72.4477 74.9764C72.5146 75.4994 72.3897 76.029 72.0963 76.4671C71.8029 76.9052 71.3608 77.2223 70.8517 77.3597C70.5217 77.4283 70.1842 77.454 69.8477 77.4359H49.1947C48.7173 77.397 48.2411 77.5238 47.8464 77.7951C47.4517 78.0664 47.1626 78.4655 47.028 78.9251C46.8937 79.2721 46.8488 79.6473 46.8975 80.0162C46.9462 80.385 47.0869 80.7357 47.3066 81.036C47.5263 81.3362 47.818 81.5764 48.1549 81.7344C48.4917 81.8924 48.863 81.9631 49.2343 81.9401C55.2846 81.9401 61.3349 81.9401 67.3851 81.9401C69.9851 81.9401 72.5728 81.9401 75.185 81.9401C75.4836 81.9238 75.7823 81.9712 76.0612 82.0791C76.3402 82.1869 76.593 82.3528 76.8031 82.5657C77.0131 82.7786 77.1755 83.0337 77.2795 83.3141C77.3835 83.5945 77.4269 83.8938 77.4065 84.1922C77.4204 84.4944 77.3698 84.7962 77.2583 85.0774C77.1467 85.3587 76.9767 85.6131 76.7595 85.8237C76.5422 86.0343 76.2828 86.1964 75.9982 86.2992C75.7136 86.4019 75.4103 86.443 75.1086 86.4198C71.0154 86.4198 66.9233 86.4198 62.8322 86.4198C62.6399 86.4198 62.4446 86.4198 62.2554 86.4351C61.8503 86.4549 61.4608 86.5978 61.1391 86.8448C60.8174 87.0919 60.5787 87.4312 60.4549 87.8175C60.3046 88.1664 60.2463 88.548 60.2853 88.926C60.3244 89.3039 60.4596 89.6656 60.678 89.9765C60.8965 90.2873 61.191 90.5371 61.5333 90.7019C61.8757 90.8667 62.2546 90.941 62.6338 90.9178C67.3129 90.9178 71.9991 90.9178 76.6924 90.9178C76.835 90.9104 76.9776 90.9338 77.1103 90.9864C77.243 91.0391 77.3628 91.1198 77.4615 91.223C78.2621 92.0118 79.1322 92.7268 80.0614 93.3591C81.6267 94.4821 83.3477 95.3703 85.1698 95.9957C85.297 96.0591 85.4274 96.1162 85.5604 96.1666C90.357 97.816 95.5747 97.7664 100.339 96.0262C104.723 94.4709 108.496 91.5565 111.108 87.7076C111.858 86.6028 112.511 85.4347 113.058 84.2166C114.301 81.5451 114.96 78.6397 114.993 75.6935C115.088 71.9651 114.212 68.276 112.451 64.9886Z" fill="#F5F5F5"/>
<path id="Path 180" d="M84.4612 71.6747L105.606 61.1956L94.6199 73.6399L101.831 78.6994L80.9458 89.1938L91.5714 76.7068L84.4612 71.6747Z" fill="#1B2E51"/>
</g>
<defs>
<filter id="filter0_b_225_873" x="-300" y="-300" width="750" height="750" filterUnits="userSpaceOnUse" color-interpolation-filters="sRGB">
<feFlood flood-opacity="0" result="BackgroundImageFix"/>
<feGaussianBlur in="BackgroundImageFix" stdDeviation="150"/>
<feComposite in2="SourceAlpha" operator="in" result="effect1_backgroundBlur_225_873"/>
<feBlend mode="normal" in="SourceGraphic" in2="effect1_backgroundBlur_225_873" result="shape"/>
</filter>
</defs>
</svg>
