<svg width="56" height="56" viewBox="0 0 56 56" fill="none" xmlns="http://www.w3.org/2000/svg">
<g id="Projects Done 1" clip-path="url(#clip0_225_755)">
<g id="Projects Done">
<g id="diamond">
<path id="Path 423" d="M36.5358 11.6248C35.6458 10.2078 34.1848 10.1498 32.3978 9.88584C32.258 9.86226 32.1279 9.79908 32.023 9.70381C31.918 9.60853 31.8426 9.48516 31.8057 9.34832C31.7687 9.21148 31.7718 9.06691 31.8145 8.93176C31.8573 8.79662 31.9379 8.67656 32.0468 8.58584C32.2271 8.46911 32.4329 8.39743 32.6468 8.37684C33.4937 8.29514 34.3294 8.12316 35.1398 7.86384C37.0128 7.05584 36.9818 5.39984 37.3498 3.61284C37.3768 3.42863 37.4721 3.26131 37.6167 3.14408C37.7613 3.02685 37.9448 2.96828 38.1306 2.97999C38.3164 2.99169 38.491 3.07282 38.6198 3.20728C38.7486 3.34174 38.8221 3.51969 38.8258 3.70584C38.901 4.73355 39.1608 5.7393 39.5928 6.67484C40.5418 8.16484 42.2108 8.16484 43.8138 8.43084C43.9482 8.46868 44.0691 8.54382 44.1626 8.64756C44.256 8.7513 44.3182 8.8794 44.3418 9.01701C44.3655 9.15462 44.3496 9.29611 44.2962 9.4251C44.2427 9.55409 44.1538 9.6653 44.0398 9.74584C43.8456 9.84733 43.6331 9.9092 43.4148 9.92784C41.7698 10.1668 40.4538 10.2768 39.5878 11.6518C39.5668 11.6848 39.5758 11.7008 39.6158 11.7008C41.8558 11.6768 44.0924 11.6788 46.3258 11.7068C46.4873 11.7145 46.6449 11.7593 46.7863 11.8379C46.9277 11.9165 47.049 12.0267 47.1408 12.1598C49.9408 15.1558 52.7334 18.1558 55.5188 21.1598C55.6048 21.2305 55.6749 21.3186 55.7242 21.4184C55.7735 21.5182 55.8011 21.6273 55.8049 21.7386C55.8088 21.8498 55.789 21.9606 55.7467 22.0636C55.7044 22.1666 55.6407 22.2594 55.5598 22.3358C46.5851 32.4892 37.5978 42.6308 28.5978 52.7608C28.1458 53.2688 27.6238 52.9738 27.2408 52.5418C22.3528 47.0445 17.4508 41.5258 12.5348 35.9858C12.4361 35.8745 12.3734 35.8908 12.3468 36.0348C12.2354 36.6095 12.1311 37.2125 12.0338 37.8438C11.9458 38.4068 11.7188 38.8998 11.0568 38.7528C10.8856 38.7137 10.7328 38.6174 10.6237 38.4798C10.5147 38.3421 10.4558 38.1714 10.4568 37.9958C10.3805 37.1231 10.1926 36.2638 9.89777 35.4388C9.11077 33.7498 7.49777 33.6598 5.83377 33.3948C4.66277 33.2098 4.64677 31.9948 5.72777 31.8548C6.60953 31.8126 7.47961 31.6355 8.30777 31.3298C8.3531 31.3045 8.35844 31.2712 8.32377 31.2298C5.6751 28.2565 3.0331 25.2795 0.39777 22.2988C0.0387698 21.8858 0.20877 21.4858 0.55577 21.1118C3.34644 18.1058 6.1421 15.1032 8.94277 12.1038C9.37277 11.6438 9.60977 11.7148 10.3228 11.7038C13.2018 11.6658 16.0798 11.7348 18.9538 11.7168C22.6978 11.6915 26.4418 11.6838 30.1858 11.6938C30.1997 11.6955 30.2128 11.7011 30.2238 11.7098C30.2344 11.7187 30.2479 11.7234 30.2618 11.7228L36.4978 11.6858C36.5451 11.6858 36.5568 11.6662 36.5328 11.6268M38.0278 7.13384C37.5846 7.97505 36.8929 8.65914 36.0468 9.09284C35.9868 9.12484 35.9868 9.15817 36.0468 9.19284C36.8813 9.62514 37.5664 10.2987 38.0128 11.1258C38.0474 11.1925 38.0808 11.1925 38.1128 11.1258C38.5638 10.2897 39.2609 9.61246 40.1098 9.18584C40.1678 9.1565 40.1678 9.12717 40.1098 9.09784C39.2535 8.66646 38.551 7.98173 38.0978 7.13684C38.0744 7.0955 38.0518 7.0955 38.0298 7.13684M17.1168 20.6738C17.124 20.6827 17.1345 20.6884 17.1458 20.6897C17.1572 20.691 17.1687 20.6879 17.1778 20.6808L25.8978 13.2588C25.9022 13.2553 25.9058 13.251 25.9085 13.2461C25.9112 13.2411 25.9129 13.2357 25.9135 13.2301C25.914 13.2245 25.9135 13.2189 25.9118 13.2135C25.9101 13.2081 25.9074 13.2031 25.9038 13.1988C25.8996 13.1941 25.8946 13.1904 25.8889 13.1878C25.8832 13.1852 25.877 13.1839 25.8708 13.1838H11.2818C11.2704 13.1838 11.2594 13.1884 11.2514 13.1964C11.2433 13.2045 11.2388 13.2154 11.2388 13.2268C11.2388 13.2363 11.2419 13.2454 11.2478 13.2528L17.1168 20.6738ZM38.9168 20.6678L44.7768 13.2468C44.7802 13.2428 44.7827 13.2381 44.7842 13.2331C44.7858 13.2281 44.7863 13.2228 44.7857 13.2176C44.7852 13.2123 44.7835 13.2073 44.781 13.2027C44.7784 13.1981 44.7749 13.1941 44.7708 13.1908C44.7637 13.1852 44.7548 13.1824 44.7458 13.1828H39.1708C39.1485 13.1808 39.1262 13.1875 39.1087 13.2015C39.0912 13.2155 39.0798 13.2356 39.0768 13.2578C39.03 13.8444 38.9018 14.4216 38.6958 14.9728C38.6407 15.0611 38.5672 15.1364 38.4804 15.1937C38.3936 15.251 38.2954 15.2888 38.1926 15.3047C38.0898 15.3205 37.9847 15.314 37.8847 15.2856C37.7846 15.2571 37.6919 15.2074 37.6128 15.1398C37.1948 14.7638 37.1618 13.8058 37.0748 13.2748C37.0722 13.2488 37.0596 13.2249 37.0396 13.208C37.0196 13.1912 36.9938 13.1829 36.9678 13.1848H30.1178C30.1138 13.1847 30.1099 13.1853 30.1062 13.1867C30.1025 13.1881 30.0991 13.1902 30.0963 13.1929C30.0934 13.1956 30.0911 13.1988 30.0894 13.2024C30.0878 13.206 30.0869 13.2099 30.0868 13.2138C30.0867 13.2183 30.0877 13.2226 30.0896 13.2266C30.0915 13.2306 30.0943 13.2341 30.0978 13.2368L38.8428 20.6718C38.8539 20.6806 38.8678 20.6849 38.8819 20.6838C38.896 20.6827 38.9092 20.6762 38.9188 20.6658M19.1238 21.0078C19.1211 21.0104 19.119 21.0136 19.1176 21.017C19.1161 21.0204 19.1154 21.0241 19.1154 21.0278C19.1154 21.0316 19.1161 21.0352 19.1176 21.0387C19.119 21.0421 19.1211 21.0452 19.1238 21.0478C19.1266 21.0508 19.13 21.0531 19.1338 21.0547C19.1376 21.0562 19.1417 21.057 19.1458 21.0568H36.8628C36.8727 21.0551 36.8815 21.0497 36.8877 21.0418C36.8938 21.0338 36.8967 21.0238 36.8958 21.0138C36.8956 21.0085 36.8944 21.0033 36.8922 20.9985C36.8899 20.9937 36.8867 20.9894 36.8828 20.9858L28.0508 13.4688C28.041 13.4614 28.0291 13.4573 28.0168 13.4573C28.0045 13.4573 27.9925 13.4614 27.9828 13.4688L19.1238 21.0078ZM9.63077 13.6538C9.6231 13.6443 9.61203 13.6381 9.59989 13.6367C9.58776 13.6352 9.57552 13.6385 9.56577 13.6458L9.55977 13.6518L2.73277 20.9788C2.72841 20.983 2.72494 20.9879 2.72257 20.9934C2.72019 20.9989 2.71897 21.0048 2.71897 21.0108C2.71897 21.0168 2.72019 21.0228 2.72257 21.0283C2.72494 21.0338 2.72841 21.0387 2.73277 21.0428C2.74155 21.0507 2.75298 21.055 2.76477 21.0548H15.3978C15.41 21.0548 15.4217 21.05 15.4303 21.0414C15.4389 21.0327 15.4438 21.021 15.4438 21.0088C15.4437 20.9986 15.4402 20.9888 15.4338 20.9808L9.63077 13.6538ZM46.3768 13.6708C44.4468 16.1108 42.5181 18.5515 40.5908 20.9928C40.5581 21.0355 40.5688 21.0568 40.6228 21.0568H53.1648C53.2981 21.0568 53.3204 21.0078 53.2318 20.9098L46.4368 13.6258C46.4161 13.6038 46.3988 13.6062 46.3848 13.6328C46.3791 13.6444 46.376 13.657 46.3758 13.6698M10.4558 27.2468C10.6158 26.2848 11.8328 26.1908 11.9818 27.0938C12.2438 28.6938 12.2598 30.2778 13.8338 31.1848C14.73 31.5615 15.682 31.7886 16.6518 31.8568C17.2768 31.9568 17.7928 32.3918 17.3908 33.0498C17.3553 33.1199 17.3047 33.1812 17.2426 33.2293C17.1805 33.2774 17.1085 33.3111 17.0318 33.3278C15.4748 33.5778 14.2318 33.6128 13.3008 34.4698C13.2932 34.4756 13.2869 34.4829 13.2825 34.4913C13.278 34.4997 13.2754 34.509 13.2748 34.5185C13.2742 34.528 13.2757 34.5375 13.2792 34.5463C13.2826 34.5552 13.2879 34.5632 13.2948 34.5698L25.8308 48.6918C25.9214 48.7952 25.9438 48.7822 25.8978 48.6528L16.5238 22.6188C16.5177 22.596 16.5037 22.576 16.4843 22.5624C16.4649 22.5489 16.4413 22.5426 16.4178 22.5448H2.71877C2.6521 22.5448 2.6411 22.5695 2.68577 22.6188L9.50977 30.3008C9.51444 30.3101 9.52158 30.3179 9.53041 30.3233C9.53924 30.3287 9.5494 30.3316 9.55977 30.3316C9.57014 30.3316 9.5803 30.3287 9.58913 30.3233C9.59796 30.3179 9.6051 30.3101 9.60977 30.3008C10.1358 29.3676 10.4275 28.3206 10.4598 27.2498M37.8908 22.6038C37.893 22.5984 37.894 22.5926 37.8938 22.5867C37.8936 22.5809 37.8922 22.5751 37.8897 22.5699C37.8871 22.5646 37.8835 22.5599 37.879 22.5561C37.8746 22.5523 37.8694 22.5495 37.8638 22.5478H18.1768C18.1654 22.5478 18.1544 22.5524 18.1464 22.5604C18.1383 22.5685 18.1338 22.5794 18.1338 22.5908C18.133 22.5955 18.133 22.6002 18.1338 22.6048L27.9698 49.9368C27.9742 49.9473 27.9825 49.9556 27.9929 49.9601C28.0034 49.9646 28.0151 49.9648 28.0258 49.9608C28.0314 49.9588 28.0365 49.9556 28.0408 49.9515C28.0451 49.9473 28.0485 49.9424 28.0508 49.9368L37.8908 22.6038ZM39.5168 22.5778L30.1038 48.7158C30.102 48.7189 30.1008 48.7223 30.1004 48.7259C30.0999 48.7294 30.1001 48.733 30.1011 48.7364C30.102 48.7399 30.1036 48.7431 30.1058 48.7459C30.108 48.7487 30.1107 48.7511 30.1138 48.7528C30.1201 48.7565 30.1277 48.7575 30.1348 48.7556C30.1419 48.7538 30.148 48.7492 30.1518 48.7428L53.3668 22.5858C53.3714 22.581 53.374 22.5745 53.374 22.5678C53.374 22.5611 53.3714 22.5547 53.3668 22.5498C53.3624 22.5459 53.3567 22.5437 53.3508 22.5438H39.5618C39.552 22.5438 39.5425 22.5468 39.5344 22.5523C39.5264 22.5578 39.5202 22.5657 39.5168 22.5748M9.25777 32.7068C10.0769 33.1335 10.7461 33.8002 11.1758 34.6178C11.2098 34.6845 11.2431 34.6845 11.2758 34.6178C11.7233 33.7894 12.4087 33.114 13.2438 32.6788C13.3064 32.6448 13.3064 32.6115 13.2438 32.5788C12.4133 32.1453 11.7299 31.4755 11.2798 30.6538C11.2478 30.5972 11.2144 30.5972 11.1798 30.6538C10.9143 31.1015 10.5916 31.5126 10.2198 31.8768C9.96777 32.1238 9.55277 32.3318 9.24077 32.5998C9.18944 32.6432 9.19344 32.6802 9.25277 32.7108" fill="white"/>
</g>
</g>
</g>
<defs>
<clipPath id="clip0_225_755">
<rect width="56" height="56" fill="white"/>
</clipPath>
</defs>
</svg>
