<svg width="56" height="56" viewBox="0 0 56 56" fill="none" xmlns="http://www.w3.org/2000/svg">
<g id="Quality">
<g id="Group">
<path id="Vector" d="M25.6568 2.69897C26.0969 1.8073 27.005 1.24268 27.9994 1.24268C28.9938 1.24255 29.902 1.80718 30.3421 2.69885L36.9719 16.1314C37.3524 16.9023 38.088 17.4368 38.9389 17.5604L53.7631 19.7147C54.7472 19.8576 55.5648 20.547 55.872 21.4926C56.1793 22.4384 55.9231 23.4766 55.211 24.1707L44.4839 34.6267C43.8681 35.2268 43.5872 36.0915 43.7325 36.939L46.2643 51.7029C46.4324 52.683 46.0294 53.6735 45.225 54.2579C44.4205 54.8425 43.354 54.9195 42.4738 54.4568L29.2152 47.4866C28.4541 47.0866 27.545 47.0866 26.7839 47.4866L13.525 54.4567C12.6448 54.9195 11.5783 54.8423 10.7738 54.2578C9.96931 53.6733 9.56644 52.6827 9.73454 51.7027L12.267 36.939C12.4123 36.0915 12.1313 35.2268 11.5157 34.6265L0.78898 24.1706C0.077007 23.4765 -0.179362 22.4384 0.127915 21.4925C0.435191 20.5468 1.25276 19.8575 2.23673 19.7145L17.0611 17.5602C17.912 17.4365 18.6476 16.9021 19.0282 16.131L25.6568 2.69897Z" fill="white"/>
</g>
</g>
</svg>
