<svg width="56" height="56" viewBox="0 0 56 56" fill="none" xmlns="http://www.w3.org/2000/svg">
<g id="Reconecct 1" clip-path="url(#clip0_225_765)">
<g id="Reconecct">
<g id="hand_sack">
<path id="Path 513" d="M26.1963 47.1602C25.6488 47.1591 25.1104 47.02 24.6308 46.756C24.1512 46.4919 23.7459 46.1112 23.4523 45.6492C23.3757 45.4907 23.2568 45.3566 23.1087 45.2615C22.9607 45.1663 22.7892 45.114 22.6133 45.1102C22.5078 45.1113 22.4026 45.1227 22.2993 45.1442C22.0506 45.1935 21.7978 45.219 21.5443 45.2202C21.0392 45.2216 20.5416 45.0976 20.0962 44.8594C19.6508 44.6212 19.2715 44.2761 18.9923 43.8552C18.9198 43.7306 18.8171 43.6264 18.6937 43.5519C18.5704 43.4775 18.4302 43.4353 18.2863 43.4292C18.1543 43.4325 18.0235 43.4554 17.8983 43.4972C17.5651 43.5994 17.2187 43.652 16.8703 43.6532C16.0272 43.6563 15.2165 43.3288 14.612 42.741C14.0076 42.1533 13.6577 41.352 13.6373 40.5092C13.645 40.4021 13.6311 40.2946 13.5964 40.1931C13.5618 40.0915 13.507 39.998 13.4355 39.918C13.3639 39.8381 13.277 39.7733 13.1799 39.7277C13.0828 39.682 12.9775 39.6563 12.8703 39.6522C12.3377 39.5538 11.8362 39.3303 11.407 38.9999C10.9779 38.6695 10.6335 38.2419 10.4023 37.7522C10.202 37.3067 10.1125 36.8193 10.1414 36.3318C10.1703 35.8442 10.3168 35.3708 10.5683 34.9522C10.9125 34.3838 11.1226 33.7444 11.1825 33.0826C11.2425 32.4209 11.1507 31.7541 10.9143 31.1332C10.691 30.6755 10.3639 30.2763 9.95899 29.9674C9.55412 29.6586 9.08268 29.4486 8.58227 29.3542C8.45587 29.3535 8.33286 29.395 8.23258 29.4719C8.13229 29.5488 8.06042 29.6569 8.02827 29.7792C8.01984 29.8033 8.01016 29.827 7.99927 29.8502C7.84108 30.2987 7.55419 30.6906 7.17445 30.977C6.79472 31.2633 6.339 31.4314 5.86427 31.4602C5.37527 31.443 4.89501 31.3256 4.45327 31.1152L3.83527 30.8452C3.15227 30.5452 2.46927 30.2452 1.79227 29.9352C1.48929 29.8228 1.21338 29.6479 0.982539 29.4217C0.751693 29.1956 0.571086 28.9234 0.45249 28.6228C0.333894 28.3222 0.279971 28 0.294234 27.6771C0.308497 27.3543 0.390626 27.0381 0.53527 26.7492C2.89994 21.3705 5.27494 15.9958 7.66027 10.6252C7.82267 10.1977 8.11027 9.82919 8.48548 9.56781C8.86068 9.30644 9.30602 9.16436 9.76327 9.16016C10.1405 9.16458 10.513 9.24519 10.8583 9.39716C11.6863 9.74916 12.5073 10.1172 13.3273 10.4892L13.6973 10.6552C14.0236 10.7662 14.3215 10.9477 14.5699 11.1868C14.8182 11.4259 15.0109 11.7168 15.1342 12.0387C15.2575 12.3606 15.3084 12.7058 15.2834 13.0496C15.2583 13.3934 15.1579 13.7275 14.9893 14.0282C14.6073 14.9152 14.6013 15.0932 15.3813 15.5542L15.5563 15.6542C16.4621 16.2134 17.5067 16.5072 18.5713 16.5022C19.2927 16.4957 20.0098 16.3897 20.7023 16.1872C21.6895 15.8861 22.7134 15.7222 23.7453 15.7002C24.6451 15.6878 25.5362 15.8771 26.3533 16.2542C26.7339 16.4448 27.1526 16.5473 27.5783 16.5542C28.0634 16.5413 28.5383 16.4124 28.9633 16.1782C29.9453 15.6872 31.0283 15.4321 32.1263 15.4332C33.3797 15.4571 34.6169 15.7219 35.7703 16.2132C35.9703 16.2922 36.1703 16.3752 36.3703 16.4582C37.1342 16.8121 37.9361 17.0774 38.7603 17.2492C38.8924 17.2722 39.0262 17.2839 39.1603 17.2842C39.8605 17.2344 40.5325 16.9883 41.0993 16.5742C41.3333 16.4332 41.5543 16.3012 41.7843 16.1922C41.9503 16.1132 42.1143 15.9352 41.9463 15.5422C41.8843 15.3792 41.8403 15.2652 41.7953 15.1492C41.7313 14.9832 41.6683 14.8172 41.6093 14.6492C41.4941 14.3646 41.4372 14.0598 41.442 13.7529C41.4468 13.4459 41.5132 13.1431 41.6372 12.8623C41.7613 12.5815 41.9404 12.3284 42.1641 12.1181C42.3877 11.9079 42.6514 11.7447 42.9393 11.6382C43.9663 11.2122 45.0223 10.8112 46.0103 10.4382C46.3295 10.315 46.6682 10.25 47.0103 10.2462C47.4954 10.2524 47.9661 10.4118 48.3552 10.7017C48.7442 10.9916 49.0316 11.3971 49.1763 11.8602C50.2843 14.6888 51.3843 17.5192 52.4763 20.3512L54.0383 24.3802C54.5183 25.6222 54.9986 26.8655 55.4793 28.1102C55.6346 28.4185 55.7198 28.7574 55.7289 29.1026C55.738 29.4477 55.6707 29.7906 55.5319 30.1068C55.3931 30.4229 55.1862 30.7045 54.9259 30.9314C54.6656 31.1582 54.3584 31.3248 54.0263 31.4192C53.2393 31.7302 52.1983 32.1392 51.1263 32.5322C50.8099 32.6524 50.4747 32.7157 50.1363 32.7192C49.6704 32.7156 49.2172 32.5669 48.8397 32.2937C48.4623 32.0206 48.1793 31.6366 48.0303 31.1952C47.9553 31.0092 47.7773 30.5752 47.3503 30.5752C47.1667 30.5853 46.9897 30.6466 46.8393 30.7522C46.7064 30.8253 46.5659 30.8837 46.4203 30.9262C45.5613 31.2092 44.7933 31.5722 44.8133 32.8842C44.7671 33.3442 44.6003 33.7839 44.3297 34.1588C44.0591 34.5336 43.6943 34.8304 43.2723 35.0192C42.5573 35.4192 42.5033 35.5192 42.5413 36.3032C42.5744 36.7269 42.522 37.153 42.3873 37.556C42.2525 37.9591 42.0381 38.331 41.7567 38.6496C41.4754 38.9681 41.1328 39.2269 40.7495 39.4105C40.3662 39.594 39.9498 39.6987 39.5253 39.7182C39.4234 39.7097 39.3209 39.7228 39.2245 39.7565C39.128 39.7902 39.0397 39.8439 38.9653 39.9139C38.8909 39.984 38.8321 40.0689 38.7926 40.1632C38.7532 40.2575 38.734 40.359 38.7363 40.4612C38.6467 41.2415 38.2679 41.9599 37.6745 42.4746C37.0812 42.9893 36.3164 43.2628 35.5313 43.2412C35.4236 43.2263 35.3141 43.2341 35.2096 43.264C35.1051 43.2939 35.0081 43.3452 34.9246 43.4148C34.8411 43.4843 34.773 43.5705 34.7248 43.6679C34.6765 43.7653 34.6491 43.8716 34.6443 43.9802C34.5276 44.7142 34.1544 45.3832 33.591 45.868C33.0276 46.3529 32.3105 46.6222 31.5673 46.6282C30.9657 46.6239 30.3757 46.463 29.8553 46.1612C29.6461 46.025 29.4045 45.947 29.1553 45.9352C28.8411 45.957 28.5468 46.0966 28.3313 46.3262C27.749 46.8577 26.9906 47.1548 26.2023 47.1602M27.7273 39.3102C27.4163 39.295 27.1077 39.3724 26.8407 39.5326C26.5737 39.6928 26.3602 39.9286 26.2273 40.2102C25.9063 40.8592 25.5703 41.5002 25.2333 42.1412C25.0583 42.4732 24.8823 42.8062 24.7093 43.1412C24.5964 43.3222 24.5212 43.5242 24.4882 43.7351C24.4553 43.9459 24.4652 44.1612 24.5174 44.3681C24.5696 44.575 24.663 44.7692 24.792 44.9392C24.921 45.1091 25.083 45.2513 25.2683 45.3572C25.5599 45.5412 25.8974 45.6393 26.2423 45.6402C26.5164 45.6436 26.7868 45.5759 27.027 45.4436C27.2671 45.3112 27.4688 45.1188 27.6123 44.8852C28.2532 43.8454 28.8286 42.7666 29.3353 41.6552C29.4447 41.4129 29.4915 41.1469 29.4712 40.8818C29.4509 40.6167 29.3643 40.361 29.2193 40.1382C29.0608 39.8883 28.8428 39.6816 28.5849 39.5366C28.327 39.3915 28.0371 39.3127 27.7413 39.3072H27.7223L27.7273 39.3102ZM31.3543 41.4372C31.2388 41.438 31.1276 41.4804 31.0409 41.5567C30.9542 41.6329 30.8979 41.7378 30.8823 41.8522C30.7505 42.3207 30.5536 42.7684 30.2973 43.1822C30.1863 43.3822 30.0803 43.5742 29.9823 43.7752C29.9722 43.794 29.9612 43.8124 29.9493 43.8302C29.9026 43.8929 29.8697 43.9648 29.8524 44.0411C29.8352 44.1174 29.8341 44.1964 29.8493 44.2732C29.8697 44.3382 29.9032 44.3983 29.9478 44.4499C29.9923 44.5015 30.0469 44.5434 30.1083 44.5732C30.1763 44.6102 30.2433 44.6502 30.3083 44.6912C30.6837 44.9577 31.13 45.1067 31.5903 45.1192C31.9213 45.1091 32.2413 44.9984 32.5079 44.8019C32.7744 44.6054 32.9748 44.3324 33.0823 44.0192C33.1668 43.7273 33.1814 43.4197 33.1248 43.1212C33.0681 42.8227 32.9419 42.5417 32.7563 42.3012C32.6133 42.0575 32.4143 41.8515 32.1756 41.7003C31.937 41.5492 31.6657 41.4572 31.3843 41.4322H31.3513L31.3543 41.4372ZM23.4003 36.9982C23.0884 36.9777 22.7777 37.0529 22.5096 37.2138C22.2416 37.3746 22.029 37.6133 21.9003 37.8982C21.3543 38.9982 20.7633 40.1422 20.0933 41.3982C19.9564 41.642 19.8952 41.9211 19.9177 42.1999C19.9401 42.4786 20.0451 42.7444 20.2193 42.9632C20.3869 43.2091 20.6152 43.4077 20.882 43.5396C21.1488 43.6716 21.4451 43.7325 21.7424 43.7164C22.0396 43.7003 22.3276 43.6078 22.5787 43.4478C22.8297 43.2878 23.0352 43.0658 23.1753 42.8032C23.7583 41.7382 24.3153 40.6382 24.8543 39.5742L24.9023 39.4602C25.0355 39.2045 25.101 38.919 25.0926 38.6309C25.0842 38.3428 25.0021 38.0616 24.8543 37.8142C24.7017 37.565 24.4879 37.3591 24.2332 37.2161C23.9785 37.0731 23.6914 36.9977 23.3993 36.9972L23.4003 36.9982ZM18.9873 34.6602C18.7617 34.6446 18.5359 34.6882 18.3323 34.7866C18.1287 34.885 17.9543 35.0347 17.8263 35.2212L17.6693 35.4892C16.8593 36.8672 16.0223 38.2982 15.2913 39.7542C15.1729 39.9841 15.1166 40.2409 15.128 40.4993C15.1394 40.7576 15.2181 41.0085 15.3563 41.2272C15.5512 41.519 15.8176 41.7561 16.13 41.9159C16.4424 42.0757 16.7906 42.1529 17.1413 42.1402C17.4023 42.121 17.654 42.0353 17.8725 41.8912C18.0909 41.7471 18.2689 41.5495 18.3893 41.3172C19.2893 39.6472 20.0113 38.2582 20.6613 36.9452C20.8061 36.5605 20.8032 36.1359 20.6533 35.7532C20.5033 35.3705 20.2169 35.057 19.8493 34.8732C19.5817 34.7333 19.2842 34.6605 18.9823 34.6612M27.7823 37.7842C28.4855 37.7778 29.1673 38.0264 29.7013 38.4842C30.7597 39.3152 31.9026 40.0325 33.1113 40.6242C33.6653 40.9192 34.2353 41.2242 34.7783 41.5482C35.0163 41.6931 35.2896 41.7699 35.5683 41.7702C35.8115 41.7658 36.051 41.7091 36.2703 41.6038C36.4897 41.4986 36.6837 41.3472 36.8393 41.1602C37.0018 40.9791 37.1216 40.764 37.19 40.5305C37.2583 40.2971 37.2735 40.0512 37.2343 39.8112C37.1833 39.5416 37.0733 39.2867 36.9121 39.0647C36.751 38.8427 36.5427 38.6592 36.3023 38.5272C35.3553 37.9732 34.4023 37.4372 33.4443 36.9002L31.6393 35.8832C31.1243 35.5942 30.6093 35.3052 30.1013 35.0032C29.9477 34.9292 29.8264 34.8017 29.7601 34.6447C29.6938 34.4876 29.6871 34.3118 29.7413 34.1502C29.7784 34.0007 29.8617 33.8668 29.9793 33.7673C30.0968 33.6679 30.2427 33.608 30.3963 33.5962C30.4231 33.5922 30.4502 33.5902 30.4773 33.5902C30.6853 33.6152 30.8839 33.6915 31.0553 33.8122L31.7993 34.2312C33.9486 35.4392 36.0973 36.6485 38.2453 37.8592C38.5782 38.0762 38.9616 38.2034 39.3583 38.2282C39.4905 38.228 39.6221 38.2095 39.7493 38.1732C40.0668 38.1007 40.3556 37.9356 40.5792 37.6988C40.8028 37.4621 40.9511 37.1643 41.0053 36.8432C41.0785 36.4737 41.0262 36.0904 40.8566 35.7541C40.687 35.4178 40.4099 35.1479 40.0693 34.9872C39.0599 34.4112 38.0486 33.8385 37.0353 33.2692C36.2013 32.8025 35.3679 32.3318 34.5353 31.8572C34.2641 31.7304 34.0533 31.5025 33.9483 31.2222C33.9261 31.1335 33.9223 31.0412 33.9369 30.9509C33.9515 30.8607 33.9843 30.7743 34.0333 30.6972C34.0859 30.5869 34.1689 30.494 34.2725 30.4293C34.3762 30.3646 34.4961 30.3309 34.6183 30.3322C34.8565 30.3448 35.0876 30.4173 35.2903 30.5432C36.0236 30.9558 36.7569 31.3705 37.4903 31.7872L39.3573 32.8442C39.8863 33.1442 40.4153 33.4442 40.9573 33.7252C41.194 33.854 41.4588 33.9227 41.7283 33.9252C42.088 33.9203 42.4364 33.7989 42.7213 33.5792C42.9785 33.4001 43.1777 33.1497 43.2944 32.8589C43.4112 32.568 43.4403 32.2494 43.3783 31.9422C43.3186 31.6459 43.1888 31.3682 42.9999 31.1323C42.811 30.8964 42.5683 30.7091 42.2923 30.5862L40.4683 29.5522C38.4733 28.4232 36.4143 27.2522 34.4033 26.0812C33.801 25.7123 33.1095 25.5149 32.4033 25.5102C32.0388 25.5127 31.6763 25.5638 31.3253 25.6622C30.7843 25.8102 30.2333 25.9892 29.6393 26.2082C29.2153 26.3642 28.7963 26.5302 28.3773 26.6972C27.5242 27.0531 26.653 27.3639 25.7673 27.6282C25.052 27.8354 24.3119 27.9447 23.5673 27.9532C22.6258 27.9535 21.6976 27.7317 20.858 27.3059C20.0184 26.88 19.2911 26.262 18.7353 25.5022C18.5905 25.3605 18.4771 25.19 18.4025 25.0017C18.3279 24.8134 18.2938 24.6115 18.3023 24.4092C18.3587 24.223 18.4537 24.0509 18.5813 23.9041C18.7088 23.7573 18.8659 23.6391 19.0423 23.5572C20.2979 22.8091 21.5068 21.9852 22.6623 21.0902C23.7926 20.1678 24.8675 19.1794 25.8813 18.1302L26.1753 17.8362L25.7923 17.6742C25.1248 17.3817 24.404 17.2308 23.6753 17.2312C22.889 17.2485 22.1089 17.3747 21.3573 17.6062C20.4457 17.8806 19.5002 18.0257 18.5483 18.0372C17.1727 18.047 15.8243 17.6542 14.6693 16.9072C14.5251 16.8028 14.354 16.742 14.1763 16.7322C13.7763 16.7322 13.6073 17.1252 13.5243 17.3142C12.1243 20.5282 10.7453 23.6712 9.32427 26.7932C9.23842 26.9345 9.18367 27.0925 9.16367 27.2567C9.14367 27.4208 9.15887 27.5873 9.20827 27.7452C9.28909 27.8784 9.39731 27.993 9.52575 28.0812C9.65418 28.1695 9.79991 28.2295 9.95327 28.2572C10.5557 28.3826 11.1084 28.6809 11.5441 29.1155C11.9797 29.55 12.2793 30.1021 12.4063 30.7042L12.4273 30.7992L12.5343 30.8992L12.6893 31.0462L12.8983 30.9582C13.5718 30.5148 14.3544 30.2657 15.1603 30.2382C15.8536 30.2655 16.5196 30.5153 17.0599 30.9506C17.6002 31.3859 17.986 31.9836 18.1603 32.6552C18.2129 32.8197 18.3222 32.9602 18.4687 33.0517C18.6151 33.1433 18.7893 33.1799 18.9603 33.1552C19.5807 33.1273 20.1954 33.2838 20.7268 33.6051C21.2583 33.9263 21.6826 34.3979 21.9463 34.9602C22.011 35.1269 22.1266 35.269 22.2767 35.3663C22.4267 35.4636 22.6036 35.5111 22.7823 35.5022C22.8423 35.5022 22.9073 35.5022 22.9763 35.4922C23.1103 35.4802 23.2413 35.4752 23.3693 35.4752C23.9887 35.4585 24.5991 35.6261 25.1232 35.9567C25.6473 36.2873 26.0615 36.766 26.3133 37.3322C26.3713 37.4795 26.4723 37.6061 26.6032 37.6952C26.7342 37.7844 26.8889 37.8321 27.0473 37.8322C27.1143 37.8316 27.1811 37.8259 27.2473 37.8152C27.4247 37.7882 27.6038 37.7744 27.7833 37.7742M14.9813 31.7492C14.6896 31.7459 14.4021 31.8192 14.1476 31.9619C13.8932 32.1046 13.6806 32.3116 13.5313 32.5622C13.2093 33.0872 12.9213 33.6392 12.6443 34.1732L12.4393 34.5642L12.2873 34.8462C12.085 35.1949 11.9127 35.5602 11.7723 35.9382C11.6902 36.1981 11.6706 36.4738 11.715 36.7428C11.7595 37.0117 11.8667 37.2665 12.028 37.4862C12.1893 37.706 12.4002 37.8846 12.6435 38.0076C12.8868 38.1306 13.1556 38.1945 13.4283 38.1942C13.7263 38.2005 14.0199 38.1212 14.2741 37.9655C14.5283 37.8099 14.7325 37.5845 14.8623 37.3162C15.2243 36.5992 15.6453 35.8912 16.0523 35.2072C16.1856 34.9792 16.3206 34.7512 16.4573 34.5232C16.6475 34.2379 16.7517 33.904 16.7573 33.5612C16.7742 33.1813 16.6653 32.8066 16.4474 32.495C16.2295 32.1834 15.9148 31.9525 15.5523 31.8382C15.3679 31.7782 15.1752 31.7475 14.9813 31.7472M46.9363 11.7952C46.7642 11.7987 46.5945 11.8354 46.4363 11.9032C45.9363 12.1032 45.4253 12.2972 44.9193 12.4912L43.8393 12.9082C42.9293 13.2632 42.8023 13.5572 43.1603 14.4812L46.6513 23.4812L49.3173 30.3712C49.4463 30.7032 49.6413 31.2052 50.1823 31.2052C50.3091 31.2031 50.4344 31.178 50.5523 31.1312C51.2923 30.8542 52.0283 30.5642 52.7653 30.2762L53.6373 29.9342C53.8109 29.8715 53.9586 29.7524 54.0566 29.596C54.1547 29.4395 54.1975 29.2548 54.1783 29.0712V29.0342L54.1473 28.9232C54.1232 28.8294 54.0945 28.737 54.0613 28.6462L52.3113 24.1362C50.8046 20.2615 49.3026 16.3868 47.8053 12.5122C47.758 12.3135 47.6471 12.1356 47.4896 12.0057C47.332 11.8757 47.1363 11.8008 46.9323 11.7922M9.83227 10.6922C9.63727 10.7084 9.45154 10.7824 9.29887 10.9048C9.14619 11.0272 9.03352 11.1924 8.97527 11.3792C6.65394 16.6598 4.3246 21.9362 1.98727 27.2082C1.91698 27.337 1.87372 27.4789 1.86013 27.625C1.84655 27.7712 1.86293 27.9186 1.90827 28.0582C1.96811 28.1871 2.05373 28.3024 2.15984 28.397C2.26596 28.4916 2.39032 28.5635 2.52527 28.6082C3.06527 28.8352 3.59927 29.0742 4.13227 29.3142C4.44427 29.4542 4.7566 29.5932 5.06927 29.7312C5.29567 29.8484 5.54314 29.9195 5.79727 29.9402C6.25627 29.9402 6.46227 29.5572 6.66927 29.0932C8.95794 23.9172 11.2449 18.7395 13.5303 13.5602C13.5853 13.4302 13.6413 13.2972 13.6813 13.1892L13.7433 13.0362V12.9892C13.7565 12.7808 13.6993 12.5741 13.5808 12.4021C13.4624 12.2302 13.2896 12.1031 13.0903 12.0412L12.2903 11.6872C11.6493 11.4072 11.0093 11.1262 10.3763 10.8312C10.2103 10.7476 10.028 10.7015 9.84227 10.6962M32.4253 23.9962C33.4238 23.9984 34.4021 24.2778 35.2513 24.8032C36.2213 25.3822 37.2253 25.9382 38.1973 26.4772C39.7143 27.3182 41.2843 28.1892 42.7483 29.1552C43.3117 29.5711 43.9874 29.8074 44.6873 29.8332C45.2923 29.8158 45.882 29.6384 46.3963 29.3192C46.8813 29.0422 47.0963 28.7782 46.8533 28.1552C45.4123 24.5022 44.1743 21.3022 43.0673 18.3722C42.9913 18.1722 42.8113 17.6952 42.3673 17.6952C42.1407 17.7125 41.925 17.7991 41.7493 17.9432C40.9882 18.4899 40.0753 18.785 39.1383 18.7872C38.3443 18.7709 37.5619 18.594 36.8383 18.2672C36.3743 18.0672 35.9023 17.8892 35.4303 17.7082L35.2013 17.6202C34.2718 17.2238 33.2779 17.0001 32.2683 16.9602L32.1093 16.9662C32.0093 16.9662 31.8993 16.9742 31.7953 16.9812C29.7967 17.2044 27.9445 18.1372 26.5753 19.6102C24.7956 21.3838 22.8291 22.9597 20.7103 24.3102C20.6153 24.3552 20.5325 24.4222 20.4686 24.5057C20.4048 24.5892 20.3618 24.6867 20.3433 24.7902C20.3506 24.8983 20.3838 25.0032 20.44 25.0959C20.4962 25.1886 20.5738 25.2666 20.6663 25.3232C21.48 26.0478 22.5347 26.4429 23.6243 26.4312C24.5878 26.3915 25.5376 26.1886 26.4333 25.8312C26.9873 25.6312 27.5333 25.4172 28.0763 25.1992C28.8973 24.8712 29.7473 24.5342 30.6063 24.2812C31.1935 24.1038 31.8029 24.0105 32.4163 24.0042" fill="white"/>
<path id="Path 514" d="M11.7742 13.7172C11.7709 13.8573 11.7397 13.9954 11.6823 14.1233C11.6249 14.2512 11.5426 14.3663 11.4401 14.462C11.3377 14.5576 11.2172 14.6318 11.0857 14.6803C10.9541 14.7288 10.8143 14.7505 10.6742 14.7442C10.5399 14.7421 10.4073 14.7136 10.284 14.6602C10.1606 14.6069 10.049 14.5298 9.95553 14.4333C9.86202 14.3368 9.78843 14.2229 9.73896 14.0979C9.6895 13.973 9.66513 13.8396 9.66725 13.7052C9.66347 13.565 9.68803 13.4255 9.73946 13.295C9.79088 13.1646 9.86812 13.0458 9.96654 12.9459C10.065 12.846 10.1825 12.767 10.3122 12.7136C10.4419 12.6602 10.581 12.6335 10.7212 12.6352C11.0038 12.6407 11.2728 12.7574 11.47 12.96C11.6671 13.1625 11.7764 13.4346 11.7742 13.7172Z" fill="white"/>
<path id="Path 515" d="M45.9483 15.7921C45.8083 15.7908 45.67 15.7617 45.5414 15.7065C45.4128 15.6513 45.2964 15.5711 45.1991 15.4705C45.1018 15.3699 45.0254 15.251 44.9744 15.1206C44.9235 14.9902 44.899 14.851 44.9023 14.7111C44.9173 14.4292 45.0412 14.1642 45.248 13.972C45.4547 13.7798 45.7281 13.6755 46.0103 13.6811C46.2813 13.6948 46.5366 13.8125 46.7229 14.0098C46.9092 14.2071 47.0122 14.4688 47.0103 14.7401C47.0135 14.8801 46.9881 15.0193 46.9357 15.1492C46.8833 15.279 46.8049 15.3969 46.7054 15.4954C46.6059 15.594 46.4874 15.6712 46.357 15.7224C46.2267 15.7736 46.0873 15.7976 45.9473 15.7931" fill="white"/>
</g>
</g>
</g>
<defs>
<clipPath id="clip0_225_765">
<rect width="56" height="56" fill="white"/>
</clipPath>
</defs>
</svg>
