<svg width="56" height="56" viewBox="0 0 56 56" fill="none" xmlns="http://www.w3.org/2000/svg">
<g id="Satisfaction 1" clip-path="url(#clip0_225_777)">
<g id="Satisfaction">
<g id="like Thumb">
<path id="Path 436" d="M27.2648 54.0555L27.1648 54.0285C27.0514 53.9929 26.9354 53.9661 26.8178 53.9483C26.5288 53.9112 26.2388 53.8822 25.9478 53.8541C25.3812 53.8103 24.8178 53.7316 24.2608 53.6186C23.2418 53.3891 22.2118 53.1176 21.2148 52.861C20.5448 52.6876 19.8758 52.5133 19.2038 52.3489L19.1688 52.3409L19.0858 52.3349C18.8591 52.3531 18.6463 52.4519 18.4858 52.6135C18.3488 52.7488 18.2218 52.8961 18.0948 53.0434C17.938 53.2391 17.7633 53.4196 17.5728 53.5825C17.3722 53.725 17.1545 53.8415 16.9248 53.9293C16.8248 53.9704 16.7348 54.0125 16.6418 54.0566H5.90082C5.75986 53.9465 5.64917 53.8022 5.57919 53.6374C5.50922 53.4726 5.48224 53.2927 5.50082 53.1146C5.51549 46.8105 5.51882 40.5074 5.51082 34.2054V29.0705C5.51082 28.2688 5.63982 28.1325 6.43282 28.1325H15.8988C16.4605 28.0952 17.0198 28.2341 17.4992 28.5299C17.9785 28.8256 18.3541 29.2636 18.5738 29.783L18.6848 30.0014L18.9178 29.9423C21.3952 29.3245 23.7948 28.4275 26.0708 27.2686C27.9196 26.3832 29.5827 25.1523 30.9708 23.6419C32.3023 22.2742 33.0911 20.4673 33.1898 18.5591V18.3978C33.1906 17.6155 33.2575 16.8348 33.3898 16.0638C33.5637 15.2652 34.0024 14.5492 34.6343 14.0324C35.2663 13.5155 36.0542 13.2284 36.8698 13.2178C37.879 13.2391 38.8385 13.6612 39.5372 14.3913C40.236 15.1214 40.6167 16.0997 40.5958 17.111L40.6088 17.7284C40.6416 18.5326 40.6332 19.3381 40.5838 20.1415C40.4558 21.7449 40.2838 23.1569 40.0528 24.4667C39.9061 25.2265 39.7212 25.9784 39.4988 26.7195C39.3988 27.0582 39.3078 27.3959 39.2208 27.7356L39.1208 28.1305H39.5208C40.2518 28.1305 40.9868 28.1305 41.7208 28.1214C42.4548 28.1124 43.2128 28.1124 43.9618 28.1124C45.0698 28.1124 45.9868 28.1224 46.8418 28.1445C47.3441 28.1452 47.8411 28.2476 48.303 28.4454C48.7649 28.6433 49.1822 28.9326 49.5298 29.2959C50.1976 30.0551 50.5422 31.0461 50.4898 32.0568C50.4911 32.8059 50.2577 33.5364 49.8226 34.1456C49.3876 34.7547 48.7728 35.2116 48.0648 35.452L47.7418 35.5873L47.9138 35.899C48.2175 36.3825 48.4134 36.9261 48.4881 37.4925C48.5629 38.059 48.5147 38.6349 48.3468 39.1809C48.1866 39.729 47.8985 40.2309 47.5064 40.6453C47.1143 41.0597 46.6294 41.3746 46.0918 41.564L45.7578 41.6913L45.9308 42.011C46.2302 42.5022 46.4229 43.0511 46.4965 43.6219C46.5701 44.1927 46.5228 44.7727 46.3578 45.324C46.2044 45.8572 45.9288 46.3471 45.5529 46.7546C45.177 47.1621 44.7112 47.4759 44.1928 47.671L43.9308 47.7712L44.1618 48.5929C44.2798 49.0138 44.3958 49.4227 44.5048 49.8286C44.591 50.4452 44.5209 51.0737 44.3009 51.6561C44.0808 52.2384 43.718 52.7559 43.2458 53.1606C42.8625 53.4044 42.4614 53.6188 42.0458 53.802C41.8718 53.8842 41.6978 53.9674 41.5268 54.0525L27.2648 54.0555ZM36.8818 14.6608C36.3144 14.6812 35.7742 14.9097 35.364 15.3031C34.9537 15.6965 34.7021 16.2272 34.6568 16.7944C34.6438 17.0539 34.6338 17.3175 34.6218 17.579C34.6028 18.041 34.5828 18.502 34.5548 18.963C34.4102 20.9049 33.6282 22.7443 32.3308 24.1941C30.8104 25.9603 28.9578 27.4092 26.8788 28.4582C24.5397 29.6716 22.0705 30.6147 19.5188 31.2691C19.4082 31.2793 19.3008 31.3122 19.2034 31.3658C19.106 31.4195 19.0207 31.4926 18.9528 31.5808C18.8836 31.6704 18.8328 31.7728 18.8035 31.8823C18.7741 31.9917 18.7668 32.1059 18.7818 32.2181C18.7918 37.0284 18.7948 41.8386 18.7908 46.6488V50.7806L19.0208 50.8407C19.4708 50.957 19.9208 51.0792 20.3628 51.2005C21.3628 51.4721 22.3928 51.7527 23.4198 51.9641L23.6718 52.0162C25.0177 52.3372 26.3901 52.5341 27.7718 52.6045C29.7238 52.6415 31.7808 52.6566 34.0608 52.6566C36.0448 52.6566 38.1608 52.6436 40.9168 52.6145C41.2926 52.6176 41.6629 52.5239 41.9921 52.3422C42.3214 52.1606 42.5985 51.8972 42.7968 51.5773C43.0047 51.2319 43.1255 50.8411 43.1491 50.4385C43.1726 50.0359 43.098 49.6337 42.9318 49.2664C42.7424 48.8429 42.4279 48.4878 42.0307 48.2491C41.6335 48.0104 41.1728 47.8996 40.7108 47.9315C40.3828 47.9255 40.0558 47.9245 39.7268 47.9245H38.0268C37.7998 47.9468 37.5733 47.8779 37.3968 47.7331C37.2781 47.5834 37.2218 47.3934 37.2398 47.203C37.2398 46.8603 37.3398 46.5105 38.0048 46.5095H38.1448C38.6138 46.5095 39.0838 46.5095 39.5548 46.5185C40.0258 46.5276 40.4978 46.5266 40.9688 46.5266C41.7238 46.5266 42.3488 46.5155 42.9248 46.4915C43.2941 46.4831 43.6556 46.3839 43.9777 46.2027C44.2997 46.0215 44.5724 45.7638 44.7718 45.4523C44.9722 45.1219 45.092 44.7488 45.1216 44.3633C45.1511 43.9778 45.0895 43.5907 44.9418 43.2336C44.7652 42.7859 44.4507 42.4064 44.0441 42.1501C43.6375 41.8938 43.1599 41.7742 42.6808 41.8085C42.3648 41.8085 42.0498 41.8025 41.7338 41.8025H39.9998C39.3288 41.8025 39.2318 41.4698 39.2288 41.113C39.2097 40.9218 39.2657 40.7306 39.3848 40.5799C39.4711 40.5085 39.5707 40.4549 39.6778 40.4222C39.7849 40.3895 39.8974 40.3784 40.0088 40.3895H40.1428C40.6128 40.3895 41.0818 40.3895 41.5528 40.3985C42.0238 40.4075 42.4958 40.4076 42.9668 40.4076C43.7278 40.4076 44.3518 40.3955 44.9308 40.3705C45.2957 40.3609 45.6527 40.2623 45.9709 40.0831C46.2891 39.9039 46.5589 39.6496 46.7568 39.3423C46.9567 39.0168 47.0778 38.649 47.1104 38.2683C47.1431 37.8876 47.0863 37.5045 46.9448 37.1496C46.7771 36.6955 46.4679 36.3076 46.063 36.0434C45.6581 35.7792 45.1791 35.6526 44.6968 35.6825C44.3598 35.6745 44.0218 35.6725 43.6848 35.6725H41.9638C41.2988 35.6725 41.2128 35.2927 41.2128 34.966C41.2128 34.6393 41.2988 34.2645 41.9648 34.2645H42.1398C42.6068 34.2645 43.0758 34.2645 43.5398 34.2725C44.0038 34.2805 44.4788 34.2795 44.9498 34.2795C45.6978 34.2795 46.3118 34.2705 46.8828 34.2475C47.2634 34.2411 47.6361 34.1382 47.9663 33.9484C48.2964 33.7587 48.5732 33.4881 48.7708 33.1622C48.9712 32.8212 49.0858 32.4365 49.1048 32.0412C49.1238 31.646 49.0466 31.252 48.8798 30.8933C48.6878 30.4607 48.3663 30.0985 47.9597 29.8572C47.5531 29.6159 47.0817 29.5073 46.6108 29.5465H34.0178C33.9158 29.5554 33.813 29.5437 33.7156 29.5121C33.6182 29.4804 33.5281 29.4294 33.4508 29.3621C33.3281 29.2107 33.2692 29.0172 33.2868 28.8229C33.2868 28.3559 33.5198 28.1355 34.0078 28.1335H37.4658L37.5478 27.9511C38.5484 25.5755 39.1157 23.0394 39.2228 20.4632C39.2868 19.5813 39.2648 18.6814 39.2438 17.8135L39.2308 17.2694C39.2769 16.6679 39.0975 16.0708 38.7276 15.5949C38.3577 15.119 37.824 14.7984 37.2308 14.6959C37.1157 14.6745 36.9989 14.6637 36.8818 14.6638M11.9718 52.6315C13.1718 52.6315 14.3718 52.6315 15.5718 52.6506H15.6348C15.8788 52.6736 16.1249 52.6472 16.3586 52.573C16.5922 52.4988 16.8086 52.3783 16.9948 52.2186C17.3242 51.8106 17.4791 51.2886 17.4258 50.7666C17.4138 46.4327 17.4108 42.0988 17.4168 37.7649V31.1599C17.4477 30.8876 17.4022 30.612 17.2854 30.3642C17.1686 30.1164 16.9852 29.9061 16.7558 29.7569C16.4346 29.6043 16.0809 29.533 15.7258 29.5495C14.2658 29.5428 12.8055 29.5401 11.3448 29.5415H6.90082V52.6405C6.90082 52.6405 11.1848 52.6315 11.9718 52.6315Z" fill="white"/>
<path id="Path 437" d="M35.8948 5.30696C35.8948 4.53331 35.8888 3.75967 35.8948 2.98602C35.8813 2.85051 35.8973 2.71369 35.9415 2.58493C35.9857 2.45616 36.0572 2.3385 36.151 2.24C36.2449 2.14149 36.3588 2.06448 36.4851 2.01422C36.6114 1.96396 36.7471 1.94165 36.8828 1.94882C37.1644 1.95313 37.4334 2.0664 37.6336 2.26495C37.8338 2.4635 37.9496 2.73193 37.9568 3.01408C37.9654 4.57874 37.9654 6.14307 37.9568 7.70706C37.9488 7.98885 37.8325 8.25668 37.6322 8.45461C37.4319 8.65254 37.163 8.76529 36.8818 8.76931C36.7461 8.77646 36.6105 8.75402 36.4844 8.70355C36.3582 8.65308 36.2445 8.57578 36.151 8.47698C36.0576 8.37818 35.9866 8.26024 35.9431 8.1313C35.8995 8.00235 35.8844 7.86547 35.8988 7.7301C35.8908 6.92239 35.8988 6.11367 35.8988 5.30595" fill="white"/>
<path id="Path 438" d="M42.2268 11.2186C42.0056 11.2211 41.7894 11.1528 41.6096 11.0238C41.4298 10.8948 41.2957 10.7117 41.2268 10.501C41.1436 10.3259 41.1213 10.1279 41.1636 9.93867C41.2058 9.7494 41.3101 9.57976 41.4598 9.45682C42.4468 8.43064 43.4598 7.42751 44.4598 6.41736C44.6498 6.28733 44.8746 6.21777 45.1048 6.21777C45.3349 6.21777 45.5597 6.28733 45.7498 6.41736C45.8549 6.49178 45.9442 6.58633 46.0126 6.69555C46.081 6.80477 46.1272 6.92649 46.1484 7.05368C46.1696 7.18087 46.1654 7.31101 46.1361 7.43658C46.1068 7.56215 46.053 7.68066 45.9778 7.78527C45.8201 8.02673 45.633 8.24757 45.4208 8.44267C44.5798 9.26942 43.7368 10.0952 42.8738 10.8999C42.675 11.037 42.4564 11.1443 42.2268 11.2186Z" fill="white"/>
<path id="Path 439" d="M31.2939 11.2426C31.0315 11.1258 30.7838 10.9785 30.5559 10.8036C29.6059 9.88369 28.6969 8.91964 27.7379 8.01071C27.547 7.81876 27.4322 7.56382 27.4149 7.29337C27.3976 7.02291 27.479 6.75538 27.6439 6.54058C27.8238 6.36874 28.0555 6.26162 28.3028 6.23605C28.55 6.21047 28.7987 6.26789 29.0099 6.39928C29.2454 6.56557 29.4647 6.75381 29.6649 6.96148C30.5029 7.81797 31.3339 8.68047 32.1579 9.54898C32.2866 9.68528 32.3678 9.85975 32.3893 10.0462C32.4108 10.2327 32.3713 10.4211 32.2769 10.5832C32.19 10.7735 32.0521 10.9359 31.8785 11.0524C31.705 11.1688 31.5026 11.2346 31.2939 11.2426Z" fill="white"/>
<path id="Path 440" d="M26.9768 16.9096C26.3078 16.9096 25.6388 16.9146 24.9698 16.9096C24.8291 16.9166 24.6885 16.8948 24.5566 16.8453C24.4247 16.7959 24.3042 16.7199 24.2027 16.6221C24.1012 16.5242 24.0208 16.4066 23.9663 16.2764C23.9119 16.1462 23.8846 16.0063 23.8862 15.8651C23.8877 15.724 23.9181 15.5847 23.9755 15.4558C24.0328 15.3268 24.1158 15.211 24.2195 15.1155C24.3232 15.0199 24.4453 14.9467 24.5782 14.9002C24.7112 14.8537 24.8523 14.835 24.9928 14.8452C26.3308 14.8399 27.6688 14.8399 29.0068 14.8452C29.2872 14.8419 29.5585 14.9448 29.7664 15.1334C29.9743 15.322 30.1033 15.5824 30.1278 15.8624C30.1143 16.1534 29.9864 16.4272 29.772 16.624C29.5576 16.8208 29.2743 16.9246 28.9838 16.9126C28.3148 16.9126 27.6458 16.9126 26.9768 16.9126" fill="white"/>
<path id="Path 441" d="M46.6459 16.9096C45.9599 16.9096 45.2739 16.9176 44.5869 16.9096C44.4515 16.9142 44.3168 16.8895 44.1918 16.8373C44.0668 16.785 43.9545 16.7064 43.8626 16.6067C43.7706 16.5071 43.7012 16.3887 43.6589 16.2598C43.6167 16.1308 43.6027 15.9943 43.6179 15.8594C43.6069 15.7281 43.6238 15.5959 43.6676 15.4716C43.7114 15.3473 43.781 15.2338 43.8719 15.1385C43.9627 15.0432 44.0727 14.9683 44.1946 14.9188C44.3165 14.8693 44.4474 14.8463 44.5789 14.8513C45.9682 14.8419 47.3579 14.8419 48.7479 14.8513C48.8856 14.8464 49.0229 14.8694 49.1516 14.9188C49.2803 14.9682 49.3978 15.0429 49.4971 15.1387C49.5964 15.2344 49.6755 15.3492 49.7297 15.4762C49.7839 15.6031 49.8121 15.7397 49.8127 15.8778C49.8132 16.0159 49.7861 16.1527 49.7328 16.2801C49.6796 16.4075 49.6014 16.5229 49.5028 16.6194C49.4043 16.7159 49.2874 16.7916 49.159 16.842C49.0307 16.8923 48.8936 16.9164 48.7559 16.9126C48.0559 16.9247 47.3489 16.9126 46.6459 16.9126" fill="white"/>
<path id="Path 442" d="M13.1299 42.953C13.1299 41.6111 13.1299 40.2693 13.1299 38.9274C13.1299 38.232 13.4969 37.8331 14.1129 37.8341C14.2567 37.8358 14.3988 37.866 14.531 37.9231C14.6631 37.9801 14.7827 38.0629 14.8827 38.1665C14.9828 38.2701 15.0613 38.3925 15.1139 38.5268C15.1664 38.661 15.1919 38.8043 15.1889 38.9485C15.1929 41.6489 15.1929 44.3496 15.1889 47.0507C15.1923 47.1947 15.1673 47.3381 15.1154 47.4724C15.0634 47.6068 14.9855 47.7295 14.8861 47.8336C14.7867 47.9377 14.6677 48.0211 14.5361 48.079C14.4044 48.1369 14.2626 48.1682 14.1189 48.1711C13.9789 48.1773 13.8393 48.1526 13.71 48.0986C13.5807 48.0447 13.4648 47.9629 13.3706 47.859C13.2764 47.7551 13.2061 47.6317 13.1649 47.4975C13.1236 47.3634 13.1123 47.2218 13.1319 47.0828C13.1319 45.7058 13.1319 44.3309 13.1319 42.954" fill="white"/>
<path id="Path 443" d="M13.1298 34.8838C13.1221 34.7488 13.1431 34.6138 13.1916 34.4877C13.2401 34.3616 13.3149 34.2473 13.4109 34.1524C13.507 34.0576 13.6222 33.9844 13.7487 33.9377C13.8753 33.891 14.0103 33.8719 14.1448 33.8816C14.4146 33.9 14.6687 34.0148 14.8611 34.2052C15.0534 34.3955 15.1712 34.6488 15.1928 34.9188C15.1716 35.1974 15.0467 35.4578 14.843 35.6486C14.6393 35.8394 14.3716 35.9466 14.0928 35.949C13.9575 35.9514 13.8232 35.9247 13.699 35.8708C13.5748 35.8168 13.4636 35.7368 13.3729 35.6362C13.2821 35.5355 13.2139 35.4166 13.1728 35.2873C13.1318 35.158 13.1188 35.0215 13.1348 34.8868" fill="white"/>
</g>
</g>
</g>
<defs>
<clipPath id="clip0_225_777">
<rect width="56" height="56" fill="white"/>
</clipPath>
</defs>
</svg>
