<svg width="56" height="56" viewBox="0 0 56 56" fill="none" xmlns="http://www.w3.org/2000/svg">
<g id="Support">
<g id="Group">
<path id="path2" fill-rule="evenodd" clip-rule="evenodd" d="M28.6373 7.54841C24.6575 7.41588 20.6367 8.50165 17.1653 10.8188C13.2665 13.4241 10.5418 17.2713 9.28677 21.5721C8.94019 21.5297 8.52516 21.5484 8.03236 21.6878C6.19245 22.2098 4.80863 23.7175 4.18641 25.0453C3.37939 26.7757 3.03903 29.0642 3.39805 31.4268C3.75459 33.7819 4.74952 35.7233 5.99396 36.9285C7.24214 38.1344 8.65148 38.5264 10.0515 38.2321C12.1359 37.7872 13.1694 37.4543 12.8776 35.5123L11.4645 26.0987C11.7495 21.004 14.3871 16.2079 18.7987 13.2585C24.7036 9.31428 32.4453 9.5669 38.0776 13.8907C41.9957 16.8948 44.2706 21.396 44.5332 26.1211L43.5451 32.7061C41.3412 38.7373 35.8774 42.9149 29.555 43.5079H25.3451C24.2587 43.5079 23.3838 44.3827 23.3838 45.4679V46.502C23.3838 47.5878 24.2587 48.4626 25.3451 48.4626H30.6533C31.739 48.4626 32.6101 47.5878 32.6101 46.502V45.9613C37.3776 44.7977 41.539 41.8677 44.2488 37.7816L45.9493 38.2327C47.3332 38.5917 48.7593 38.1344 50.0069 36.9291C51.2513 35.7233 52.2456 33.7825 52.6028 31.4274C52.963 29.0649 52.6127 26.7801 51.815 25.0459C51.0142 23.3118 49.8214 22.2105 48.4445 21.8153C47.8677 21.6492 47.2417 21.5882 46.7047 21.5721C45.5698 17.6832 43.2333 14.1465 39.8659 11.5642C36.555 9.0237 32.617 7.67908 28.6373 7.54841Z" fill="white"/>
<path id="path4" fill-rule="evenodd" clip-rule="evenodd" d="M34.8501 24.4841C36.2532 24.4841 37.3907 25.6215 37.3938 27.0284C37.3907 28.4315 36.2532 29.572 34.8501 29.572C33.4433 29.572 32.3027 28.4315 32.3027 27.0284C32.3027 25.6222 33.4439 24.4841 34.8501 24.4841ZM27.9995 24.4841C29.4057 24.4841 30.5431 25.6215 30.5431 27.0284C30.5431 28.4315 29.4057 29.572 27.9995 29.572C26.592 29.572 25.4546 28.4315 25.4546 27.0284C25.4546 25.6222 26.592 24.4841 27.9995 24.4841ZM21.1513 24.4841C22.5544 24.4841 23.6949 25.6215 23.6949 27.0284C23.6949 28.4315 22.5544 29.572 21.1513 29.572C19.7451 29.572 18.607 28.4315 18.607 27.0284C18.607 25.6222 19.7451 24.4841 21.1513 24.4841ZM27.9995 13.5566C20.539 13.5566 14.5271 19.3707 14.5271 27.0284C14.5271 30.7063 15.9178 33.9568 18.1833 36.3418L17.3794 39.9457C17.1143 41.1317 17.9369 41.9294 19.0027 41.3358L22.522 39.3726C24.1946 40.0988 26.0444 40.5001 27.9995 40.5001C35.4624 40.5001 41.4706 34.6898 41.4706 27.0284C41.4706 19.3707 35.4624 13.5566 27.9995 13.5566Z" fill="white"/>
</g>
</g>
</svg>
